<?xml version="1.0" encoding="utf-8"?>
<!-- Generator: Adobe Illustrator 16.0.0, SVG Export Plug-In . SVG Version: 6.00 Build 0)  -->
<!DOCTYPE svg PUBLIC "-//W3C//DTD SVG 1.1//EN" "http://www.w3.org/Graphics/SVG/1.1/DTD/svg11.dtd">
<svg version="1.1" id="Layer_1" xmlns="http://www.w3.org/2000/svg" xmlns:xlink="http://www.w3.org/1999/xlink" x="0px" y="0px"
	 width="130px" height="100px" viewBox="0 0 130 100" enable-background="new 0 0 130 100" xml:space="preserve">
<g>
	<g>
		<g>
			<g>
				<path fill="#740545" d="M76.729,53.558c-1.209,4.036-1.711,8.419-0.304,12.569c1.379,4.08,8.856,11.24,11.946,4.977
					c2.794-5.82-2.694-14.37-4.985-19.678L76.729,53.558z"/>
				<g>
					<path fill="#090808" d="M88.772,61.049c-0.161-0.429-0.33-0.854-0.506-1.273l-0.269-0.627l-0.1-0.209
						c-0.256-0.532-0.525-1.056-0.804-1.571c-1.119-2.067-2.395-3.996-3.709-5.941c0.547,2.298,1.449,4.464,2.256,6.61l0.606,1.604
						l0.077,0.21l0.24,0.609c0.156,0.406,0.307,0.813,0.448,1.223c0.281,0.817,0.53,1.641,0.725,2.467
						c0.386,1.646,0.562,3.331,0.259,4.875c-0.153,0.768-0.419,1.507-0.817,2.13c-0.394,0.628-0.892,1.081-1.463,1.271
						c-0.569,0.198-1.263,0.147-1.97-0.09c-0.707-0.235-1.41-0.637-2.069-1.114c-1.318-0.964-2.498-2.221-3.417-3.593
						c-0.228-0.344-0.437-0.696-0.616-1.053c-0.09-0.178-0.172-0.356-0.244-0.534c-0.037-0.092-0.066-0.172-0.102-0.271l-0.1-0.298
						c-0.26-0.796-0.451-1.614-0.577-2.448c-0.063-0.417-0.11-0.838-0.142-1.26l-0.012-0.158l-0.006-0.063l-0.01-0.103l-0.02-0.207
						c-0.023-0.275-0.042-0.553-0.056-0.831c-0.115-2.229,0.094-4.507,0.351-6.846c-1.07,2.096-1.752,4.407-1.955,6.816
						c-0.024,0.301-0.041,0.603-0.049,0.906l-0.004,0.228l-0.002,0.114l0.001,0.069l0.007,0.175c0.02,0.467,0.056,0.934,0.111,1.399
						c0.112,0.932,0.301,1.859,0.57,2.765l0.104,0.338c0.035,0.112,0.079,0.241,0.124,0.357c0.089,0.237,0.188,0.466,0.293,0.688
						c0.212,0.443,0.449,0.863,0.705,1.268c0.513,0.807,1.095,1.553,1.734,2.25c0.642,0.696,1.341,1.343,2.117,1.918
						c0.777,0.571,1.629,1.08,2.613,1.416c0.49,0.166,1.018,0.287,1.574,0.317c0.555,0.031,1.144-0.033,1.7-0.224
						c0.558-0.189,1.07-0.501,1.49-0.875c0.423-0.375,0.761-0.805,1.037-1.246c0.556-0.886,0.889-1.858,1.073-2.837
						c0.359-1.973,0.096-3.913-0.36-5.713C89.382,62.785,89.094,61.907,88.772,61.049z"/>
				</g>
			</g>
			<g>
				<g>
					<path fill="#F53CA5" d="M85.992,64.775l1.044-0.477c-0.001,0-0.001,0-0.001,0C86.674,64.454,86.325,64.614,85.992,64.775z"/>
					<g>
						<polygon points="85.695,64.164 85.695,64.164 86.275,65.395 86.289,65.387 85.71,64.158 						"/>
						<path d="M86.29,65.388L86.29,65.388c0.009-0.004,0.017-0.009,0.024-0.014C86.306,65.378,86.298,65.383,86.29,65.388
							L86.29,65.388z"/>
						<path d="M85.709,64.158L85.709,64.158c0.021-0.009,0.041-0.017,0.061-0.024C85.75,64.142,85.729,64.148,85.709,64.158z"/>
						<path d="M85.869,64.099c-0.01,0.003-0.02,0.005-0.029,0.008c-0.024,0.008-0.047,0.019-0.07,0.027
							c-0.02,0.008-0.04,0.016-0.06,0.024l0.579,1.229c0.009-0.004,0.017-0.009,0.025-0.013c0.156-0.081,0.297-0.197,0.418-0.358
							c0.127-0.173,0.239-0.383,0.303-0.717c-0.292-0.178-0.526-0.232-0.744-0.248C86.14,64.043,86,64.061,85.869,64.099z"/>
						<path d="M86.289,64.047C86.14,64.04,86,64.06,85.869,64.099c0.131-0.038,0.271-0.056,0.422-0.048
							c0.218,0.016,0.452,0.07,0.744,0.248l0,0C86.748,64.116,86.511,64.062,86.289,64.047z"/>
						<path d="M85.84,64.106c0.01-0.003,0.02-0.005,0.029-0.008C85.859,64.102,85.85,64.104,85.84,64.106z"/>
						<path d="M85.77,64.134c0.023-0.009,0.046-0.02,0.07-0.027C85.815,64.114,85.793,64.125,85.77,64.134z"/>
						<path d="M86.314,65.374c0.158-0.079,0.3-0.192,0.422-0.351c0.13-0.175,0.243-0.388,0.299-0.725l0,0
							c-0.063,0.334-0.176,0.544-0.303,0.717C86.611,65.177,86.471,65.293,86.314,65.374z"/>
					</g>
				</g>
				<g>
					<path fill="#F9AE41" d="M87.035,64.299C87.035,64.299,87.035,64.299,87.035,64.299l-1.043,0.477
						C86.325,64.614,86.674,64.454,87.035,64.299c-5.354,1.393-4.84,6.664-1.969,8.321c0.622,0.38,1.485,0.446,2.421,0.341
						c-2.61-2.09-1.906-6.271,0.111-8.897C87.408,64.141,87.22,64.219,87.035,64.299z"/>
					<g>
						<path d="M89.029,73.388l-0.115-0.095l-0.912-0.753c-0.151-0.123-0.269-0.23-0.393-0.341c-0.11-0.109-0.209-0.214-0.295-0.32
							c-0.085-0.106-0.166-0.213-0.234-0.319c-0.048-0.071-0.064-0.104-0.099-0.157c-0.058-0.1-0.113-0.201-0.163-0.306
							c-0.1-0.209-0.182-0.429-0.246-0.656c-0.066-0.227-0.113-0.462-0.146-0.701c-0.016-0.119-0.028-0.24-0.035-0.362l-0.01-0.183
							l-0.006-0.125c-0.012-0.234-0.01-0.472,0.002-0.71c0.077-1.441,0.518-2.9,1.222-4.296c-0.187,0.171-0.36,0.355-0.528,0.546
							c0.025,0.018,0.051,0.033,0.077,0.051c-0.066,0.032-0.132,0.061-0.195,0.088c-0.815,0.975-1.391,2.181-1.638,3.482
							c-0.048,0.271-0.084,0.547-0.1,0.826l-0.003,0.052l-0.003,0.098l0.001,0.221c0.003,0.147,0.011,0.295,0.023,0.442
							c0.026,0.295,0.073,0.592,0.145,0.885s0.167,0.583,0.289,0.864c0.06,0.141,0.13,0.278,0.202,0.414l0.109,0.188
							c0.003,0.006,0.004,0.01,0.005,0.013l0.008,0.026c0.001,0.002,0.001,0.004,0.001,0.005c-0.004,0-0.013-0.002-0.018-0.003
							c-0.011-0.003-0.019-0.006-0.023-0.008l-0.005-0.004l-0.001-0.001l-0.068-0.017c-0.049-0.016-0.1-0.028-0.146-0.047
							c-0.097-0.033-0.18-0.07-0.265-0.119l-0.145-0.085c-0.051-0.031-0.094-0.062-0.141-0.093
							c-0.184-0.131-0.356-0.276-0.513-0.441c-0.947-0.98-1.322-2.53-0.88-3.824c0.108-0.324,0.266-0.632,0.463-0.916
							c0.098-0.143,0.208-0.277,0.327-0.406c0.058-0.065,0.122-0.127,0.185-0.188l0.093-0.091c0.247-0.234,0.522-0.446,0.821-0.635
							c0.224-0.143,0.46-0.271,0.705-0.39c0.186-0.094,0.374-0.165,0.569-0.249c0.039-0.046,0.077-0.093,0.118-0.139
							c-0.057-0.037-0.112-0.074-0.167-0.108c-0.136,0.084-0.277,0.171-0.433,0.261c-0.123,0.03-0.24,0.041-0.352,0.033
							c-0.027-0.002-0.055-0.004-0.082-0.008l-0.041-0.007c-0.006-0.009,0.027-0.017,0.038-0.024l0.196-0.094l0.396-0.183
							l0.099-0.044c0.019-0.003,0.029-0.026,0.054-0.012l0.072,0.043c0.018,0.011,0.035,0.023,0.053,0.034
							c0.068-0.042,0.139-0.085,0.202-0.125l0.493-0.313c-0.189,0.04-0.382,0.084-0.569,0.13c-0.159,0.037-0.297,0.07-0.412,0.093
							c-0.61,0.19,0.164-0.249,0.284-0.356c0.011-0.006-0.009-0.002-0.011-0.004l-0.055,0.011l-0.113,0.021
							c-0.075,0.013-0.149,0.031-0.225,0.047c-0.149,0.034-0.299,0.071-0.447,0.116c-0.297,0.088-0.591,0.196-0.879,0.327
							c-0.382,0.177-0.75,0.397-1.092,0.664l-0.13,0.105c-0.085,0.076-0.171,0.152-0.251,0.234
							c-0.162,0.162-0.315,0.335-0.454,0.521c-0.279,0.37-0.508,0.782-0.67,1.222c-0.655,1.771-0.188,3.838,1.11,5.194
							c0.217,0.229,0.459,0.435,0.72,0.616c0.065,0.044,0.134,0.09,0.198,0.13c0.064,0.038,0.129,0.077,0.207,0.12
							c0.15,0.085,0.317,0.158,0.478,0.211c0.081,0.029,0.161,0.051,0.242,0.074l0.13,0.03c0.065,0.017,0.131,0.027,0.197,0.037
							c0.266,0.051,0.525,0.062,0.777,0.069c0.506,0.006,0.938-0.055,1.391-0.1l0.664-0.072l0.227-0.029l0.156-0.021
							C89.137,73.463,89.061,73.416,89.029,73.388z"/>
						<path d="M87.147,64.66c-0.026-0.018-0.052-0.033-0.077-0.051c-0.041,0.046-0.079,0.093-0.118,0.139
							C87.016,64.721,87.081,64.692,87.147,64.66z"/>
						<path d="M86.778,64.424c-0.024-0.015-0.035,0.009-0.054,0.012l-0.099,0.044l-0.396,0.183l-0.196,0.094
							c-0.011,0.008-0.044,0.016-0.038,0.024l0.041,0.007c0.027,0.004,0.055,0.006,0.082,0.008c0.111,0.008,0.229-0.003,0.352-0.033
							c0.155-0.09,0.297-0.177,0.433-0.261c-0.018-0.011-0.035-0.023-0.053-0.034L86.778,64.424z"/>
					</g>
				</g>
				<g>
					<path fill="#F53CA5" d="M96.27,62.293c-2.71-0.133-5.979,0.684-8.671,1.771c-2.018,2.627-2.722,6.808-0.111,8.897
						c1.845-0.205,3.972-1.073,5.091-1.502c1.89-0.783,4.755-1.952,5.933-3.695C100.074,65.48,99.176,62.483,96.27,62.293z"/>
					<g>
						<path d="M98.017,62.17c-0.054-0.032-0.09-0.052-0.161-0.09c-0.196-0.097-0.4-0.175-0.605-0.236
							c-0.207-0.062-0.416-0.105-0.625-0.136c-0.104-0.015-0.209-0.025-0.318-0.034l-0.293-0.014
							c-0.77-0.027-1.531,0.015-2.284,0.101c-1.505,0.173-2.972,0.517-4.401,0.966c-0.357,0.112-0.712,0.232-1.064,0.359
							l-0.527,0.196l-0.313,0.122l-0.254,0.103l-0.165,0.219l-0.121,0.164l-0.085,0.12l-0.165,0.246
							c-0.107,0.165-0.21,0.333-0.307,0.504c-0.192,0.343-0.366,0.695-0.517,1.059c-0.301,0.727-0.518,1.491-0.623,2.281
							c-0.105,0.789-0.099,1.607,0.076,2.414c0.174,0.805,0.534,1.596,1.079,2.244c0.135,0.162,0.28,0.315,0.436,0.458
							c0.118,0.106,0.266,0.231,0.4,0.341l0.103,0.086c0.044-0.003,0.089-0.01,0.133-0.015l0.261-0.031l0.241-0.034l0.151-0.023
							l0.286-0.054c0.189-0.037,0.377-0.079,0.563-0.124c1.488-0.369,2.86-0.92,4.232-1.489c0.338-0.146,0.677-0.294,1.016-0.447
							l0.169-0.079l0.065-0.033l0.132-0.068c0.175-0.092,0.349-0.185,0.521-0.281c0.688-0.389,1.362-0.822,1.974-1.342
							c0.605-0.518,1.165-1.135,1.486-1.857c-0.555,0.557-1.201,0.951-1.863,1.305c-0.666,0.35-1.356,0.65-2.06,0.93l-0.528,0.208
							l-0.133,0.052l-0.067,0.025l-0.166,0.069l-1.005,0.411c-1.341,0.52-2.708,1.029-4.068,1.341
							c-0.17,0.038-0.341,0.074-0.51,0.104l-0.255,0.043l-0.119,0.019l-0.03,0.003c-0.022,0-0.008,0.002-0.028-0.018
							c-0.113-0.106-0.219-0.221-0.316-0.34c-0.391-0.479-0.652-1.059-0.783-1.685c-0.261-1.257-0.025-2.646,0.489-3.891
							c0.129-0.313,0.278-0.618,0.444-0.913c0.082-0.147,0.17-0.292,0.262-0.434l0.141-0.211l0.113-0.16v-0.001l0.197-0.078
							l0.5-0.189c0.336-0.123,0.673-0.239,1.013-0.35c1.357-0.439,2.748-0.782,4.148-0.966c0.699-0.092,1.401-0.143,2.095-0.133
							l0.255,0.006c0.073,0.005,0.149,0.012,0.228,0.021c0.154,0.019,0.304,0.047,0.449,0.087c0.146,0.039,0.286,0.09,0.42,0.15
							l0.113,0.051c0.281,0.131,0.534,0.314,0.75,0.545c0.434,0.458,0.691,1.115,0.738,1.822c0.049,0.708-0.104,1.46-0.423,2.176
							c0.552-0.557,0.959-1.305,1.087-2.143c0.131-0.83-0.033-1.762-0.566-2.518C98.766,62.729,98.415,62.406,98.017,62.17z"/>
					</g>
				</g>
				<g>
					<path fill="#F53CA5" d="M95.406,60.701c-2.591,0.149-5.709,1.38-6.947,3.941c-1.134,2.268,0.557,3.229,2.579,4.02l7.473-0.898
						c1.042-0.431,1.224-3.287,1.046-4.553C99.35,60.909,97.077,60.564,95.406,60.701z"/>
					<g>
						<path d="M100.066,62.768c-0.032-0.227-0.089-0.456-0.175-0.68c-0.021-0.058-0.044-0.109-0.071-0.17
							c-0.047-0.1-0.101-0.196-0.159-0.291c-0.118-0.188-0.257-0.363-0.415-0.519c-0.314-0.313-0.689-0.544-1.07-0.704
							c-0.771-0.32-1.559-0.404-2.318-0.398c-0.742,0.019-1.485,0.092-2.215,0.256c-1.449,0.324-2.865,0.934-4.036,1.929
							c-0.581,0.497-1.093,1.097-1.468,1.778c-0.096,0.172-0.178,0.346-0.256,0.518l-0.045,0.109l-0.029,0.077l-0.055,0.157
							c-0.069,0.211-0.123,0.434-0.152,0.666c-0.06,0.462,0.01,0.984,0.244,1.411c0.23,0.429,0.58,0.735,0.936,0.96
							c0.721,0.443,1.489,0.64,2.257,0.795c-0.662-0.414-1.337-0.82-1.845-1.322c-0.251-0.249-0.445-0.523-0.533-0.802
							c-0.09-0.278-0.083-0.561-0.004-0.856c0.038-0.147,0.094-0.297,0.162-0.446l0.055-0.111l0.069-0.138
							c0.074-0.143,0.149-0.281,0.231-0.412c0.33-0.529,0.761-0.994,1.257-1.391c0.995-0.791,2.229-1.309,3.505-1.593
							c0.639-0.145,1.294-0.214,1.95-0.243c0.636-0.02,1.271,0.046,1.804,0.249c0.267,0.101,0.502,0.237,0.693,0.411
							c0.096,0.086,0.18,0.183,0.254,0.287c0.037,0.053,0.07,0.107,0.103,0.165l0.053,0.099c0.139,0.266,0.197,0.555,0.261,0.94
							c0.113,0.706,0.146,1.466,0.117,2.208c-0.018,0.371-0.053,0.743-0.134,1.104c-0.087,0.353-0.198,0.728-0.525,0.953
							c0.193-0.041,0.372-0.166,0.515-0.314c0.144-0.15,0.26-0.322,0.359-0.502c0.199-0.36,0.335-0.746,0.441-1.136
							c0.206-0.784,0.305-1.578,0.289-2.411l-0.016-0.303C100.096,63.001,100.083,62.877,100.066,62.768z"/>
					</g>
				</g>
				<g>
					<linearGradient id="SVGID_1_" gradientUnits="userSpaceOnUse" x1="88.6328" y1="59.5225" x2="98.9609" y2="88.1769">
						<stop  offset="0" style="stop-color:#FFFFFF"/>
						<stop  offset="1" style="stop-color:#000000"/>
					</linearGradient>
					<path fill="url(#SVGID_1_)" d="M93.746,66.297c-2.175,1.301-2.47,4.625-5.462,4.369c-1.669-0.092-3.38-0.75-3.618-2.458
						c-0.149-0.736-0.342-1.638-0.365-2.491c-2.274,2.137-1.107,4.194,1.127,5.484c1.85,1.131,5.464,0.904,7.15,0.258
						c1.89-0.783,4.755-1.952,5.933-3.695c0.596-0.246,0.91-1.286,1.037-2.369C97.539,65.019,95.513,65.229,93.746,66.297z"/>
				</g>
				<g>
					<linearGradient id="SVGID_2_" gradientUnits="userSpaceOnUse" x1="96.3086" y1="73.4512" x2="90.1047" y2="61.8799">
						<stop  offset="0" style="stop-color:#FFFFFF"/>
						<stop  offset="1" style="stop-color:#000000"/>
					</linearGradient>
					<path fill="url(#SVGID_2_)" d="M95.406,60.701c-2.156,0.125-4.676,0.998-6.175,2.762c-0.765,0.255-1.504,0.537-2.196,0.836
						c-1.188,0.309-2.086,0.81-2.734,1.418c0.023,0.854,0.216,1.755,0.365,2.491c0.238,1.708,1.949,2.366,3.618,2.458
						c2.992,0.256,3.287-3.068,5.462-4.369c1.767-1.068,3.793-1.278,5.802-0.902c0.095-0.809,0.085-1.643,0.009-2.184
						C99.35,60.909,97.077,60.564,95.406,60.701z"/>
				</g>
				<g>
					<path fill="#090808" d="M91.206,65.49c-0.251-0.126-0.521-0.172-0.788-0.137c0.196,0.187,0.383,0.336,0.53,0.496
						c0.149,0.158,0.254,0.314,0.312,0.481c0.059,0.167,0.078,0.357,0.065,0.577c-0.009,0.219-0.052,0.455-0.072,0.727
						c0.224-0.153,0.396-0.363,0.503-0.62c0.107-0.254,0.142-0.573,0.035-0.871C91.688,65.844,91.454,65.615,91.206,65.49z"/>
				</g>
				<g>
					<path fill="#090808" d="M95.155,62.981c-0.229-0.33-0.53-0.614-0.89-0.784c0.199,0.342,0.369,0.663,0.502,0.997
						c0.135,0.332,0.236,0.671,0.323,1.02s0.158,0.706,0.231,1.071c0.076,0.365,0.149,0.738,0.273,1.114
						c0.111-0.38,0.16-0.765,0.169-1.153c0.007-0.389-0.029-0.782-0.126-1.168S95.385,63.314,95.155,62.981z"/>
				</g>
				<g>
					<path fill="#090808" d="M97.755,63.137c-0.257-0.279-0.55-0.529-0.896-0.703c0.181,0.339,0.363,0.65,0.537,0.963
						c0.175,0.312,0.34,0.621,0.483,0.933c0.142,0.313,0.263,0.627,0.323,0.95c0.063,0.323,0.055,0.656-0.086,1.018
						c0.331-0.209,0.518-0.636,0.529-1.043c0.018-0.41-0.092-0.807-0.254-1.16C98.229,63.74,98.011,63.42,97.755,63.137z"/>
				</g>
			</g>
		</g>
		<g>
			<g>
				<path fill="#F53CA5" d="M61.165,76.546l0.029,0.319c-0.015-0.159-9.292,2.177-9.599,2.156c-2.25-0.148-3.702,7.35-1.505,13.891
					c2.504,7.452,4.576,3.729,4.576,3.729l10.771-10.666C65.437,85.976,66.523,75.035,61.165,76.546z"/>
				<path d="M60.953,75.797l-0.622,0.176l0.021,0.234c-0.831,0.17-2.346,0.525-4.988,1.156c-1.611,0.384-3.43,0.818-3.794,0.879
					c-0.014-0.001-0.027-0.001-0.041-0.001c-0.464,0-1.15,0.186-1.784,1.067c-1.661,2.311-2.215,8.428-0.393,13.852
					c1.173,3.492,2.471,5.189,3.965,5.189c1.083,0,1.752-0.894,1.963-1.223l10.902-10.796l0.027-0.278
					c0.068-0.692,0.605-6.832-1.668-9.342C63.636,75.709,62.4,75.39,60.953,75.797z M64.687,85.623L54.04,96.166l-0.054,0.098
					c-0.076,0.136-0.387,0.529-0.668,0.529c-0.113,0-1.142-0.115-2.49-4.129c-1.73-5.149-1.061-10.721,0.181-12.447
					c0.188-0.262,0.383-0.419,0.534-0.419h0L51.6,79.8c0.211,0,0.59-0.079,4.126-0.923c2.017-0.481,5.064-1.208,5.466-1.243
					l-0.03,0.001c-0.335,0-0.704-0.262-0.744-0.7l0.835-0.075l0.123,0.436c0.865-0.244,1.498-0.107,2.013,0.46
					C64.849,79.365,64.834,83.74,64.687,85.623z"/>
			</g>
			<linearGradient id="SVGID_3_" gradientUnits="userSpaceOnUse" x1="48.5889" y1="74.1484" x2="72.3071" y2="109.8255">
				<stop  offset="0" style="stop-color:#FFFFFF"/>
				<stop  offset="1" style="stop-color:#000000"/>
			</linearGradient>
			<path fill="url(#SVGID_3_)" d="M56.786,83.719c-3.34,2.006-5.642,5.105-6.891,8.58c0.062,0.205,0.126,0.41,0.194,0.613
				c2.504,7.452,4.576,3.729,4.576,3.729l10.771-10.666c0,0,0.191-1.93,0.017-4.058C62.545,81.577,59.457,82.241,56.786,83.719z"/>
			<linearGradient id="SVGID_4_" gradientUnits="userSpaceOnUse" x1="63.0361" y1="77.7021" x2="55.8247" y2="84.5639">
				<stop  offset="0" style="stop-color:#FFFFFF"/>
				<stop  offset="1" style="stop-color:#000000"/>
			</linearGradient>
			<ellipse fill="url(#SVGID_4_)" cx="54.157" cy="86.15" rx="0.421" ry="0.457"/>
			<g>
				<path fill="#740545" d="M69.298,59.724l-9.883,1.465c0.519,4.927,1.792,8.783,4.029,13.13c1.418,2.67,3.526,5.785,3.792,8.912
					c-2.395,3.734,6.771,2.441,8.158,1.172C78.707,75.301,75.755,65.011,69.298,59.724z"/>
				<g>
					<path fill="#090808" d="M76.502,68.983c-0.197-0.588-0.417-1.169-0.66-1.739c-0.121-0.286-0.248-0.568-0.381-0.85l-0.059-0.115
						l-0.054-0.101c-0.283-0.532-0.591-1.051-0.923-1.554c-1.329-2.001-3.063-3.756-5.128-4.901c1.519,1.796,2.765,3.687,3.741,5.7
						c0.246,0.502,0.475,1.01,0.688,1.523l0.086,0.207c0.116,0.262,0.229,0.524,0.334,0.79c0.213,0.531,0.405,1.071,0.576,1.616
						c0.343,1.092,0.604,2.209,0.778,3.34c0.35,2.261,0.363,4.571,0.03,6.827c-0.166,1.128-0.419,2.242-0.758,3.329
						c-0.041,0.136-0.086,0.271-0.131,0.406l-0.067,0.202l-0.033,0.093l0.001-0.001c0-0.002,0-0.003-0.001-0.002
						c-0.004,0.002,0.008-0.004-0.009,0.005c-0.045,0.023-0.094,0.047-0.146,0.071c-0.43,0.194-0.971,0.352-1.506,0.476
						c-0.936,0.213-1.916,0.344-2.861,0.366c-0.472,0.01-0.938-0.011-1.355-0.079c-0.206-0.035-0.4-0.083-0.553-0.143
						c-0.076-0.028-0.141-0.061-0.187-0.088s-0.079-0.057-0.07-0.049c-0.002-0.002-0.005-0.004-0.005-0.007
						c-0.006,0.018,0.01-0.109,0.067-0.229c0.014-0.032,0.029-0.066,0.048-0.102c0.008-0.014,0.001-0.006,0.021-0.037l0.044-0.076
						c0.028-0.05,0.059-0.1,0.09-0.148l0.092-0.149l0.046-0.073c0.022-0.023,0.002-0.057,0.005-0.084l-0.034-0.345
						c-0.012-0.11-0.023-0.241-0.038-0.332l-0.027-0.192c-0.02-0.129-0.042-0.256-0.066-0.383c-0.198-1.014-0.533-1.965-0.923-2.865
						c-0.784-1.801-1.79-3.42-2.685-5.021c-0.434-0.781-0.847-1.614-1.236-2.438c-0.388-0.828-0.749-1.666-1.076-2.516l-0.121-0.318
						l-0.065-0.17l-0.063-0.154l-0.125-0.307l-0.244-0.618c-0.828-2.11-1.478-4.302-2.141-6.561
						c-0.183,2.347,0.047,4.728,0.609,7.039c0.057,0.226,0.114,0.452,0.176,0.676l0.095,0.337l0.049,0.168l0.012,0.041l0.048,0.141
						l0.119,0.339c0.321,0.901,0.679,1.789,1.065,2.661c0.39,0.873,0.79,1.724,1.246,2.583c0.897,1.673,1.84,3.254,2.526,4.892
						c0.342,0.816,0.617,1.642,0.77,2.465c0.019,0.103,0.036,0.205,0.051,0.308l0.021,0.153c0.001,0.012,0.002,0.015,0.002,0.016
						l0,0l0,0c0,0.003-0.001,0.004-0.003,0.006l-0.001,0.001v0.001l-0.021,0.039c-0.035,0.068-0.07,0.14-0.104,0.215
						c-0.129,0.305-0.25,0.638-0.242,1.124c0.01,0.464,0.193,0.919,0.506,1.263c0.36,0.389,0.709,0.551,1.04,0.688
						c0.331,0.128,0.642,0.2,0.944,0.254c0.604,0.102,1.174,0.122,1.736,0.113c1.121-0.023,2.201-0.169,3.281-0.414
						c0.625-0.148,1.238-0.315,1.896-0.61c0.084-0.038,0.168-0.079,0.254-0.126c0.116-0.061,0.256-0.144,0.372-0.228
						c0.122-0.085,0.228-0.185,0.338-0.28c0.076-0.121,0.116-0.27,0.177-0.404l0.082-0.205l0.043-0.117l0.072-0.223
						c0.05-0.147,0.098-0.295,0.143-0.444c0.365-1.191,0.635-2.411,0.807-3.644c0.346-2.465,0.301-4.979-0.116-7.424
						C77.199,71.366,76.896,70.16,76.502,68.983z"/>
					<path fill="#090808" d="M66.203,83.006L66.203,83.006L66.203,83.006z"/>
				</g>
			</g>
			<g>
				<linearGradient id="SVGID_5_" gradientUnits="userSpaceOnUse" x1="78.2451" y1="79.7324" x2="52.0148" y2="71.2689">
					<stop  offset="0" style="stop-color:#FFFFFF"/>
					<stop  offset="1" style="stop-color:#000000"/>
				</linearGradient>
				<path fill="url(#SVGID_5_)" d="M72.383,68.831c-1.199-0.259-2.147,1.081-2.296,2.294c-0.336,3.655,0.433,7.444,1.916,10.873
					c-1.086,1.638-3.049,2.416-5.034,2.813c0.981,1.679,7.293,0.627,8.426-0.409c1.505-4.135,1.717-8.516,0.894-12.562
					C75.4,70.335,74.162,69.156,72.383,68.831z"/>
			</g>
			<g>
				<path fill="#F9AE41" d="M62.765,75.184c-4.292,1.441-2.882,3.258-2.006,6.438c0.876,3.18,1.409,6.375,5.18,5.078
					c3.771-1.299,2.882-3.259,2.005-6.438C67.067,77.08,67.057,73.742,62.765,75.184z"/>
				<path d="M68.426,80.127c-0.123-0.445-0.229-0.901-0.333-1.342c-0.514-2.187-1.045-4.447-3.531-4.447
					c-0.572,0-1.212,0.121-1.956,0.371c-4.124,1.385-3.477,3.402-2.728,5.738c0.134,0.416,0.271,0.846,0.398,1.307
					c0.063,0.23,0.125,0.461,0.187,0.689c0.665,2.484,1.353,5.053,3.927,5.053c0.519,0,1.078-0.106,1.711-0.324
					c3.938-1.355,3.311-3.564,2.517-6.361C68.556,80.59,68.49,80.362,68.426,80.127z M65.775,86.226
					c-0.519,0.179-0.985,0.27-1.385,0.27c-1.686,0-2.243-1.628-2.961-4.311c-0.062-0.231-0.124-0.464-0.188-0.696
					c-0.133-0.48-0.274-0.921-0.411-1.347c-0.774-2.415-1.095-3.413,2.093-4.483c0.631-0.213,1.182-0.32,1.638-0.32
					c1.615,0,2.006,1.328,2.558,3.676c0.105,0.449,0.215,0.915,0.343,1.38c0.065,0.237,0.13,0.467,0.194,0.69
					C68.454,83.896,68.818,85.178,65.775,86.226z"/>
			</g>
			<linearGradient id="SVGID_6_" gradientUnits="userSpaceOnUse" x1="67.335" y1="90.8926" x2="62.767" y2="75.4071">
				<stop  offset="0" style="stop-color:#FFFFFF"/>
				<stop  offset="1" style="stop-color:#000000"/>
			</linearGradient>
			<path fill="url(#SVGID_6_)" d="M59.917,78.777c0.173,0.813,0.539,1.747,0.841,2.844c0.064,0.233,0.127,0.467,0.189,0.699
				c1.654-0.036,3.237-0.782,4.748-1.671c0.73-0.452,1.384-0.991,1.945-1.601c-0.349-1.482-0.652-2.858-1.448-3.611
				C63.896,75.862,61.647,77.185,59.917,78.777z"/>
			<linearGradient id="SVGID_7_" gradientUnits="userSpaceOnUse" x1="64.9258" y1="83.168" x2="68.4273" y2="98.1189">
				<stop  offset="0" style="stop-color:#FFFFFF"/>
				<stop  offset="1" style="stop-color:#000000"/>
			</linearGradient>
			<path fill="url(#SVGID_7_)" d="M67.641,79.049c-0.561,0.609-1.215,1.148-1.945,1.601c-1.511,0.889-3.094,1.635-4.748,1.671
				c0.783,2.926,1.497,5.581,4.991,4.379c3.771-1.299,2.882-3.259,2.005-6.438C67.832,79.855,67.735,79.449,67.641,79.049z"/>
		</g>
		<g>
			<g>
				<path fill="#740545" d="M57.542,52.18c-6.759,3.988-9.375,10.723-1.862,16.121c4.562,3.207,9.507,2.746,14.385,1.496
					c-2.742-6.176-3.997-13.501-5.244-20.079L57.542,52.18z"/>
				<g>
					<path fill="#090808" d="M70.474,69.953l-0.059-0.135l-0.339-0.785c-0.153-0.361-0.301-0.726-0.443-1.091
						c-0.285-0.732-0.551-1.473-0.8-2.219c-0.997-2.985-1.733-6.058-2.382-9.148c-0.324-1.546-0.624-3.099-0.921-4.651l-0.222-1.166
						l-0.111-0.583l-0.08-0.417l-0.053-0.277c-0.009-0.045-0.016-0.095-0.027-0.136l-0.134,0.045l-2.492,0.849l-2.246,0.767
						l-0.325,0.112l-0.031,0.013l-0.063,0.024l-0.249,0.102c-0.662,0.275-1.319,0.569-1.955,0.923
						c0.721-0.104,1.42-0.27,2.114-0.453l0.26-0.07l0.064-0.018l0.032-0.01l0.326-0.108l2.25-0.754l2.005-0.672
						c0.013-0.009,0.006,0.014,0.011,0.02l0.031,0.166l0.108,0.583l0.217,1.167c0.29,1.556,0.585,3.112,0.904,4.666
						c0.64,3.104,1.373,6.201,2.377,9.224c0.25,0.755,0.518,1.505,0.807,2.249c0.145,0.371,0.294,0.74,0.448,1.107l0.131,0.305
						c0.001,0.001,0,0.001-0.001,0.001l-0.111,0.027c-1.524,0.373-3.068,0.664-4.623,0.772c-1.552,0.109-3.118,0.028-4.621-0.333
						c-1.504-0.356-2.934-0.998-4.215-1.866c-1.269-0.881-2.447-1.936-3.316-3.197c-0.871-1.256-1.387-2.759-1.304-4.275
						c0.068-1.518,0.695-2.979,1.596-4.223c0.45-0.626,0.968-1.205,1.529-1.74c0.28-0.269,0.573-0.525,0.874-0.771l0.07-0.061
						l0.398-0.349l1.638-1.388c-0.683,0.252-1.326,0.596-1.935,0.993c-0.152,0.101-0.301,0.204-0.449,0.312l-0.077,0.058
						c-0.313,0.253-0.617,0.517-0.91,0.794c-0.586,0.554-1.131,1.156-1.608,1.813c-0.953,1.306-1.642,2.87-1.724,4.532
						c-0.043,0.825,0.066,1.659,0.313,2.446c0.246,0.789,0.624,1.528,1.083,2.203c0.928,1.353,2.148,2.444,3.472,3.367
						c1.336,0.91,2.84,1.588,4.417,1.963c1.577,0.381,3.209,0.464,4.812,0.351c1.604-0.111,3.183-0.411,4.729-0.79l0.464-0.116
						l0.287-0.073l0.071-0.019c0.02,0.002,0.001-0.018,0-0.026L70.474,69.953z"/>
				</g>
			</g>
		</g>
		<g>
			<linearGradient id="SVGID_8_" gradientUnits="userSpaceOnUse" x1="64.6577" y1="71.291" x2="62.003" y2="49.4208">
				<stop  offset="0" style="stop-color:#FFFFFF"/>
				<stop  offset="1" style="stop-color:#000000"/>
			</linearGradient>
			<path fill="url(#SVGID_8_)" d="M67.238,67.865c-2.62,1.382-5.432,1.952-8.235,1.938c3.55,1.173,7.253,0.68,10.917-0.26
				c-0.394-0.885-0.755-1.794-1.091-2.721C68.348,67.214,67.818,67.565,67.238,67.865z"/>
		</g>
		<g>
			<g>
				<path fill="#F9AE41" d="M70.809,47.39l-6.133,2.075c0.973,5.131,1.951,10.717,3.635,15.856l5.222-1.967
					c-0.622-1.235-1.15-2.526-1.572-3.869C70.757,55.543,70.585,51.474,70.809,47.39z"/>
				<path fill="#221F1F" d="M72.227,59.404c-1.04-3.405-1.402-7.219-1.141-11.999l0.022-0.41l-6.751,2.284l0.318,1.686
					c0.903,4.801,1.838,9.766,3.37,14.444l0.091,0.275l5.783-2.178l-0.139-0.276C73.155,61.986,72.632,60.699,72.227,59.404z
					 M68.484,64.959c-1.469-4.563-2.38-9.408-3.263-14.098l-0.229-1.211l5.517-1.866c-0.223,4.657,0.155,8.411,1.186,11.784
					c0.385,1.229,0.873,2.451,1.451,3.635L68.484,64.959z"/>
			</g>
			<linearGradient id="SVGID_9_" gradientUnits="userSpaceOnUse" x1="79.752" y1="53.1406" x2="66.7667" y2="57.2511">
				<stop  offset="0" style="stop-color:#FFFFFF"/>
				<stop  offset="1" style="stop-color:#000000"/>
			</linearGradient>
			<path fill="url(#SVGID_9_)" d="M64.675,49.465c0.973,5.131,1.951,10.717,3.635,15.856l3.399-1.28
				c-2.137-5.147-1.712-10.809-1.988-16.283L64.675,49.465z"/>
			<linearGradient id="SVGID_10_" gradientUnits="userSpaceOnUse" x1="75.5898" y1="53.0215" x2="61.4201" y2="62.0828">
				<stop  offset="0" style="stop-color:#FFFFFF"/>
				<stop  offset="1" style="stop-color:#000000"/>
			</linearGradient>
			<path fill="url(#SVGID_10_)" d="M70.809,47.39l-1.087,0.368c0.276,5.475-0.148,11.136,1.988,16.283l1.822-0.687
				c-0.622-1.235-1.15-2.526-1.572-3.869C70.757,55.543,70.585,51.474,70.809,47.39z"/>
			<g>
				<path fill="#F9AE41" d="M67.709,65.07c0.532,1.805,1.129,3.565,1.811,5.255c1.758-0.504,3.508-1.103,5.234-1.688
					c0.69-0.25,1.384-0.489,2.077-0.726c-1.167-1.68-2.198-3.467-3.065-5.358L67.709,65.07z"/>
				<path fill="#221F1F" d="M74.069,62.414l-0.134-0.292l-6.631,2.755l0.085,0.287c0.559,1.896,1.171,3.676,1.82,5.286l0.112,0.278
					l0.289-0.082c1.68-0.481,3.365-1.054,4.996-1.607l0.26-0.088c0.753-0.271,1.502-0.529,2.071-0.723l0.419-0.143l-0.253-0.364
					C75.93,66.03,74.908,64.244,74.069,62.414z M74.646,68.322l-0.253,0.086c-1.529,0.518-3.107,1.054-4.677,1.512
					c-0.566-1.434-1.104-2.997-1.602-4.656l5.482-2.279c0.768,1.633,1.678,3.229,2.709,4.754
					C75.809,67.909,75.227,68.111,74.646,68.322z"/>
			</g>
			<linearGradient id="SVGID_11_" gradientUnits="userSpaceOnUse" x1="77.2227" y1="73.5635" x2="69.8701" y2="63.1473">
				<stop  offset="0" style="stop-color:#FFFFFF"/>
				<stop  offset="1" style="stop-color:#000000"/>
			</linearGradient>
			<path fill="url(#SVGID_11_)" d="M67.709,65.07c0.201,0.682,0.411,1.355,0.631,2.022c2.465,0.173,4.697-0.748,6.625-2.177
				c-0.428-0.769-0.829-1.556-1.199-2.362L67.709,65.07z"/>
			<linearGradient id="SVGID_12_" gradientUnits="userSpaceOnUse" x1="70.3486" y1="64.2168" x2="81.8864" y2="84.2278">
				<stop  offset="0" style="stop-color:#FFFFFF"/>
				<stop  offset="1" style="stop-color:#000000"/>
			</linearGradient>
			<path fill="url(#SVGID_12_)" d="M68.34,67.093c0.364,1.101,0.756,2.18,1.18,3.232c1.758-0.504,3.508-1.103,5.234-1.688
				c0.69-0.25,1.383-0.489,2.077-0.726c-0.669-0.963-1.292-1.963-1.866-2.996C73.037,66.345,70.805,67.266,68.34,67.093z"/>
		</g>
		<g>
			<path fill="#740545" d="M89.998,44.497c-3.438-2.101-7.943-0.973-11.455,0.277l-7.734,2.616
				c-0.224,4.084-0.052,8.153,1.151,12.096c0.94,2.997,2.414,5.731,4.269,8.186c4.913-1.507,9.838-2.825,13.245-7.001
				C92.896,56.498,95.591,48.206,89.998,44.497z"/>
			<g>
				<path fill="#090808" d="M92.145,46.151c-0.568-0.808-1.29-1.484-2.141-2.006c-0.849-0.494-1.789-0.814-2.748-0.979
					c-0.959-0.166-1.934-0.182-2.892-0.104c-1.92,0.159-3.772,0.672-5.563,1.289l-5.347,1.812l-0.536,0.181L71.6,46.79l-0.66,0.223
					l-0.302,0.102l-0.082,0.028c-0.028,0.009-0.062,0.014-0.053,0.051l-0.009,0.174l-0.023,0.459
					c-0.045,0.933-0.066,1.868-0.059,2.804c0.014,1.871,0.149,3.748,0.465,5.601c0.313,1.85,0.816,3.681,1.541,5.417
					c0.715,1.739,1.62,3.398,2.676,4.951c0.132,0.193,0.267,0.387,0.402,0.577l0.207,0.285l0.277,0.374l0.091,0.119l0.045,0.061
					l0.078-0.023l0.311-0.096l0.352-0.108l0.667-0.204c0.889-0.273,1.778-0.549,2.664-0.85c1.768-0.599,3.523-1.293,5.155-2.242
					c0.815-0.474,1.598-1.011,2.323-1.617l0.223-0.189l0.013-0.012l0.024-0.023l0.048-0.047l0.19-0.192
					c0.506-0.526,0.958-1.103,1.31-1.741c-0.555,0.472-1.09,0.936-1.644,1.374l-0.205,0.162l-0.051,0.04l-0.026,0.02l-0.013,0.01
					l-0.216,0.183c-0.703,0.581-1.461,1.097-2.255,1.554c-1.588,0.914-3.311,1.589-5.063,2.175c-0.876,0.294-1.762,0.565-2.65,0.835
					l-0.668,0.201l-0.314,0.096c-0.015,0.004-0.028,0.018-0.049-0.021l-0.339-0.467c-0.133-0.188-0.265-0.376-0.393-0.567
					c-2.063-3.046-3.516-6.502-4.099-10.137c-0.306-1.813-0.438-3.656-0.449-5.501c-0.007-0.922,0.015-1.846,0.06-2.77l0.012-0.236
					l0,0l0.029-0.01l0.66-0.224l1.321-0.446l0.536-0.182l5.348-1.815c1.763-0.608,3.57-1.108,5.408-1.262
					c0.917-0.075,1.84-0.061,2.736,0.093c0.896,0.152,1.765,0.448,2.545,0.899c0.754,0.459,1.44,1.094,1.954,1.825
					c0.519,0.734,0.874,1.58,1.07,2.464c0.391,1.779,0.182,3.665-0.316,5.437c-0.252,0.89-0.581,1.759-0.974,2.598
					c-0.196,0.42-0.409,0.832-0.637,1.235l-0.046,0.087l-0.244,0.47c-0.329,0.627-0.678,1.245-1.03,1.881
					c0.555-0.471,1.029-1.029,1.451-1.621c0.104-0.148,0.206-0.3,0.305-0.453l0.019-0.029l0.034-0.057
					c0.236-0.416,0.457-0.84,0.661-1.271c0.408-0.863,0.752-1.76,1.017-2.68c0.522-1.835,0.757-3.808,0.343-5.725
					C93.096,47.882,92.712,46.957,92.145,46.151z"/>
			</g>
		</g>
		<g>
			<linearGradient id="SVGID_13_" gradientUnits="userSpaceOnUse" x1="86.6523" y1="60.9268" x2="67.7174" y2="32.5244">
				<stop  offset="0" style="stop-color:#FFFFFF"/>
				<stop  offset="1" style="stop-color:#000000"/>
			</linearGradient>
			<path fill="url(#SVGID_13_)" d="M89.998,44.497c-0.414-0.253-0.845-0.458-1.286-0.623c1.077,1.775,1.532,4.062,1.561,5.984
				c-0.024,6.604-6.643,12.176-12.985,11.847c-3.588-0.258-5.202-3.494-6.277-6.688c0.195,1.503,0.501,2.995,0.95,4.469
				c0.94,2.997,2.414,5.731,4.269,8.186c4.913-1.507,9.838-2.825,13.245-7.001C92.896,56.498,95.591,48.206,89.998,44.497z"/>
		</g>
		<g>
			<g>
				<path fill="#F53CA5" d="M37.129,70.72l0.07,0.345c-0.035-0.173-9.891,3.491-10.229,3.506c-0.337,0.015-3.607,7.51,0.024,15.345
					c3.632,7.835,5.448,3.522,5.448,3.522L42.93,80.5C42.93,80.5,42.803,68.426,37.129,70.72z"/>
				<path d="M38.484,69.652c-0.524,0-1.078,0.115-1.646,0.346l-0.6,0.242l0.053,0.259c-0.8,0.255-2.326,0.79-5.393,1.887
					c-1.739,0.622-3.707,1.325-4.048,1.415c-0.404,0.061-0.613,0.404-0.695,0.539c-0.676,1.109-3.371,8.34,0.134,15.902
					c1.609,3.471,3.132,5.158,4.658,5.158c1.126,0,1.864-0.928,2.163-1.55l10.601-13.078l-0.003-0.28
					C43.696,79.383,43.45,69.652,38.484,69.652z M31.769,93.034l-0.043,0.103c-0.003,0.006-0.334,0.707-0.779,0.707
					c-0.212,0-1.368-0.205-3.246-4.256c-3.113-6.717-0.869-13.2-0.277-14.335c0.453-0.141,1.461-0.495,3.998-1.401
					c2.16-0.773,5.425-1.94,5.853-2.021c-0.041,0.008-0.071,0.006-0.094,0.006l0.019-0.771l0.064-0.014l0.157,0.391
					c0.382-0.155,0.74-0.233,1.063-0.233c2.805,0,3.586,6.401,3.663,9.023L31.769,93.034z"/>
			</g>
			<linearGradient id="SVGID_14_" gradientUnits="userSpaceOnUse" x1="38.0342" y1="90.7432" x2="18.3054" y2="56.9939">
				<stop  offset="0" style="stop-color:#FFFFFF"/>
				<stop  offset="1" style="stop-color:#000000"/>
			</linearGradient>
			<path fill="url(#SVGID_14_)" d="M38.374,74.969c-0.883-0.108-1.806,0.114-2.536,0.585c-4.515,3.03-6.667,7.806-8.806,12.472
				c-0.141,0.327-0.283,0.656-0.425,0.986c0.12,0.301,0.249,0.602,0.388,0.903c3.632,7.835,5.448,3.522,5.448,3.522l9.771-12.055
				c-0.259-2.1-1.144-4.143-2.474-5.688C39.339,75.311,38.925,75.035,38.374,74.969z"/>
			<linearGradient id="SVGID_15_" gradientUnits="userSpaceOnUse" x1="43.29" y1="71.3555" x2="36.0781" y2="78.2177">
				<stop  offset="0" style="stop-color:#FFFFFF"/>
				<stop  offset="1" style="stop-color:#000000"/>
			</linearGradient>
			<ellipse fill="url(#SVGID_15_)" cx="34.411" cy="79.805" rx="0.42" ry="0.457"/>
			<g>
				<path fill="#740545" d="M48.232,63.568c-2.375,2.322-5.005,5.51-8.218,6.758c0.632,2.766,0.246,6.525,1.291,8.968
					c8.186-1.61,20.547-5.621,24.119-14.067l-4.602-9.971C55.791,57.328,52.12,59.864,48.232,63.568z"/>
				<g>
					<rect x="41.976" y="78.115" fill="#090808" width="0.003" height="0.004"/>
					<path fill="#090808" d="M60.776,70.156c-0.396,0.306-0.799,0.601-1.21,0.885l-0.31,0.211c-0.417,0.305-0.888,0.625-1.345,0.916
						c-0.926,0.588-1.89,1.125-2.878,1.619c-3.966,1.965-8.27,3.289-12.632,4.24l-0.383,0.081l-0.039,0.009l0,0h0h0
						c0-0.001,0-0.001-0.001-0.001l0.001,0.004l-0.001-0.003c0-0.002,0-0.001,0-0.001c0-0.001,0,0,0-0.001l0,0c0-0.001,0,0,0,0.001
						l0,0l-0.019-0.069c-0.059-0.228-0.11-0.463-0.155-0.701c-0.294-1.622-0.305-3.397-0.49-5.227
						c-0.027-0.27-0.06-0.542-0.097-0.815l-0.052-0.343l-0.005-0.027l-0.001-0.002c-0.003-0.004-0.001-0.006,0.002-0.008
						l0.002-0.002l0.051-0.025c0.128-0.064,0.256-0.13,0.38-0.198c1.002-0.546,1.896-1.214,2.725-1.922
						c1.655-1.418,3.063-3.013,4.502-4.458c1.457-1.421,3.008-2.784,4.642-3.998l0.619-0.449l0.167-0.126l0.278-0.212l0.562-0.42
						c1.821-1.357,3.755-2.582,5.735-3.857c-2.304,0.488-4.523,1.357-6.601,2.506c-0.215,0.117-0.426,0.24-0.637,0.364l-0.315,0.188
						l-0.078,0.049l-0.039,0.023l-0.02,0.012l-0.049,0.033l-0.66,0.455c-1.749,1.24-3.371,2.607-4.929,4.078
						c-1.531,1.489-2.92,3.015-4.457,4.3c-0.765,0.64-1.562,1.218-2.399,1.665c-0.104,0.056-0.21,0.109-0.315,0.161l-0.304,0.142
						c-0.121,0.051-0.239,0.104-0.364,0.151l-0.738,0.294l-0.046,0.018c-0.008,0.004-0.017,0.006-0.022,0.01l0.005,0.023
						l0.021,0.097l0.041,0.192l0.082,0.385l0.082,0.386l0.064,0.36l0.028,0.159l0.013,0.091l0.026,0.182
						c0.032,0.243,0.06,0.49,0.085,0.74c0.17,1.709,0.166,3.51,0.502,5.396c0.053,0.281,0.114,0.564,0.188,0.85l0.091,0.311
						c0.036,0.131,0.081,0.253,0.125,0.375c0.084,0.249,0.183,0.482,0.278,0.72l0.146,0.36l0.037,0.09
						c0.008,0.01,0.006,0.039,0.023,0.034l0.048-0.01l0.194-0.038l0.776-0.155l1.131-0.236c2.249-0.493,4.475-1.099,6.662-1.84
						c2.187-0.742,4.336-1.618,6.402-2.69c1.033-0.536,2.044-1.122,3.021-1.77c0.244-0.162,0.485-0.328,0.725-0.498l0.357-0.258
						l0.34-0.254l0.311-0.259c0.411-0.349,0.808-0.715,1.188-1.097c0.846-0.857,1.612-1.802,2.234-2.832
						c0.622-1.027,1.095-2.144,1.351-3.293C64.131,67.193,62.545,68.791,60.776,70.156z"/>
				</g>
			</g>
			<g>
				<linearGradient id="SVGID_16_" gradientUnits="userSpaceOnUse" x1="47.7861" y1="63.2051" x2="59.9743" y2="93.8296">
					<stop  offset="0" style="stop-color:#FFFFFF"/>
					<stop  offset="1" style="stop-color:#000000"/>
				</linearGradient>
				<path fill="url(#SVGID_16_)" d="M59.43,65.789c-4.174,1.168-7.709,4.432-12.176,4.332c-1.583-0.101-3.206-0.521-4.673-1.236
					c-0.814,0.592-1.667,1.092-2.566,1.441c0.632,2.766,0.246,6.525,1.291,8.968c6.527-1.284,15.709-4.095,20.973-9.463
					c0.284-0.895,0.329-1.833-0.087-2.808C61.761,65.963,60.588,65.482,59.43,65.789z"/>
			</g>
			<g>
				<path fill="#F9AE41" d="M38.714,69.039c-4.517,2.089-2.758,3.902-1.418,7.27c1.34,3.366,2.306,6.791,6.269,4.921
					s2.757-3.903,1.418-7.269C43.644,70.594,43.23,66.951,38.714,69.039z"/>
				<path d="M45.447,73.775c-0.188-0.473-0.36-0.958-0.526-1.428c-0.77-2.174-1.566-4.422-3.912-4.422
					c-0.726,0-1.545,0.215-2.505,0.659c-4.295,1.986-3.4,3.99-2.266,6.526c0.196,0.439,0.399,0.893,0.593,1.382
					c0.097,0.243,0.192,0.487,0.286,0.729c0.964,2.477,1.961,5.037,4.438,5.037c0.673,0,1.4-0.189,2.224-0.578
					c4.098-1.933,3.155-4.249,1.962-7.182C45.645,74.266,45.546,74.024,45.447,73.775z M43.352,80.777
					c-0.678,0.319-1.282,0.481-1.797,0.481c-1.792,0-2.586-2.038-3.505-4.399c-0.095-0.244-0.191-0.49-0.289-0.736
					c-0.202-0.508-0.409-0.971-0.609-1.42c-1.117-2.498-1.626-3.638,1.772-5.21c0.814-0.376,1.516-0.567,2.085-0.567
					c1.56,0,2.145,1.428,2.969,3.756c0.169,0.479,0.345,0.973,0.54,1.464c0.1,0.251,0.199,0.494,0.295,0.731
					C45.998,77.787,46.593,79.248,43.352,80.777z"/>
			</g>
			<linearGradient id="SVGID_17_" gradientUnits="userSpaceOnUse" x1="45.0322" y1="81.9453" x2="37.2499" y2="67.1588">
				<stop  offset="0" style="stop-color:#FFFFFF"/>
				<stop  offset="1" style="stop-color:#000000"/>
			</linearGradient>
			<path fill="url(#SVGID_17_)" d="M38.714,69.039c-4.024,1.861-3.066,3.505-1.862,6.223c2.391-1.291,4.896-2.372,7.254-3.697
				C43.207,69.172,42.143,67.453,38.714,69.039z"/>
			<linearGradient id="SVGID_18_" gradientUnits="userSpaceOnUse" x1="43.0771" y1="79.2686" x2="36.2979" y2="64.4875">
				<stop  offset="0" style="stop-color:#FFFFFF"/>
				<stop  offset="1" style="stop-color:#000000"/>
			</linearGradient>
			<path fill="url(#SVGID_18_)" d="M44.106,71.564c-2.358,1.325-4.863,2.406-7.254,3.697c0.147,0.332,0.298,0.68,0.444,1.047
				c1.34,3.366,2.306,6.791,6.269,4.921s2.757-3.903,1.418-7.269C44.66,73.149,44.392,72.323,44.106,71.564z"/>
		</g>
		<g>
			<g>
				<path fill="#F53CA5" d="M91.333,45.588l-0.741,0.145C90.925,45.671,91.181,45.622,91.333,45.588z"/>
				<path fill="#F53CA5" d="M85.557,46.629c-0.324,0.088-0.646,0.179-0.969,0.276l6.004-1.173
					C89.476,45.938,87.484,46.279,85.557,46.629z"/>
				<path fill="#F53CA5" d="M85.557,46.629c1.898-0.516,3.822-0.882,5.776-1.042c-3.79-0.624-6.457-2.216-9.925-3.916
					c-8.938-4.566-18.72-0.957-27.253,1.81c-7.058,2.283-15.373-3.987-24.663-0.142c-10.939,4.446-18.039,4.233-25.938,5.854
					c2.779,1.495,12.88,20.756,16.955,17.415c19.319-16.109,24.205-0.889,37.458-6.825c8.626-3.81,17.327-10.091,26.62-12.878
					l-4.016,0.784C81.173,47.454,83.322,47.035,85.557,46.629z"/>
				<g>
					<path fill="#090808" d="M86.053,47.083l1.038-0.318c1.392-0.421,2.799-0.791,4.242-1.178c-1.107-0.11-2.223-0.082-3.328,0.036
						l-1.383,0.248l-0.962,0.175l-0.107,0.02l-0.008,0.002l-0.018,0.004l-0.067,0.017l-0.134,0.032l-0.538,0.132
						c-0.104,0.027-0.208,0.057-0.312,0.084c-0.887,0.263-1.764,0.554-2.629,0.87c-0.422,0.155-0.841,0.316-1.258,0.481
						c0.729-0.104,1.461-0.132,2.188-0.206c0.734-0.065,1.465-0.143,2.195-0.227l0.548-0.067l0.137-0.017l0.068-0.008l0.017-0.002
						l0.009-0.001l0.107-0.019l0.024-0.004c0.009-0.002,0.017-0.005,0.024-0.007L86.053,47.083z"/>
					<path fill="#090808" d="M94.035,45.482l-0.299-0.052l-1.246-0.221l-1.224-0.218c-0.21-0.035-0.378-0.071-0.56-0.107
						c-0.176-0.037-0.372-0.07-0.522-0.111c-0.647-0.146-1.279-0.346-1.696-0.481c-2.399-0.807-4.664-2.091-7.012-3.239
						c-2.396-1.204-5.046-1.894-7.709-2.087c-2.666-0.202-5.334,0.057-7.924,0.549c-2.595,0.494-5.125,1.219-7.618,2.001
						c-1.247,0.392-2.485,0.799-3.722,1.201l-0.463,0.15c-0.154,0.05-0.293,0.093-0.442,0.134c-0.293,0.081-0.592,0.147-0.894,0.202
						c-0.604,0.107-1.221,0.159-1.843,0.168c-2.501,0.031-5.03-0.566-7.587-1.068c-2.557-0.512-5.197-0.965-7.891-0.864
						c-1.343,0.049-2.689,0.236-3.996,0.586c-0.653,0.174-1.296,0.387-1.924,0.637c-0.612,0.248-1.199,0.481-1.807,0.71
						c-2.412,0.913-4.875,1.682-7.378,2.292c-2.503,0.615-5.046,1.061-7.612,1.437c-2.565,0.379-5.157,0.701-7.742,1.169
						l-0.77,0.145l-0.948,0.188L2.26,48.795l-0.408,0.083l-0.071,0.014c-0.043,0.001-0.03,0.014,0.016,0.035l0.189,0.109
						l0.374,0.216c0.48,0.288,0.944,0.513,1.186,0.737c0.246,0.215,0.515,0.52,0.568,0.58c0.205,0.231,0.405,0.476,0.603,0.724
						c0.788,0.999,1.535,2.061,2.282,3.121l0.157,0.223c1.487,2.124,2.961,4.273,4.542,6.361c0.792,1.043,1.608,2.072,2.488,3.063
						c0.888,0.984,1.813,1.951,2.975,2.748c0.294,0.195,0.605,0.378,0.951,0.529c0.344,0.149,0.727,0.27,1.155,0.299
						c0.424,0.031,0.9-0.061,1.292-0.284c0.193-0.104,0.386-0.265,0.49-0.353l0.373-0.307c0.995-0.813,2.014-1.594,3.063-2.327
						c2.097-1.463,4.318-2.753,6.685-3.636c1.182-0.439,2.398-0.771,3.635-0.963c1.237-0.194,2.492-0.243,3.744-0.157
						c2.514,0.159,4.977,0.894,7.526,1.509c1.277,0.305,2.587,0.566,3.927,0.68c1.339,0.116,2.706,0.074,4.04-0.154
						c1.335-0.227,2.632-0.632,3.863-1.16c1.21-0.527,2.388-1.09,3.558-1.676c4.671-2.352,9.123-5.037,13.733-7.371
						c2.304-1.167,4.646-2.249,7.054-3.138c1.196-0.442,2.407-0.835,3.634-1.164l-0.024,0.004l-0.107,0.019l-0.009,0.001
						l-0.017,0.002l-0.068,0.008l-0.137,0.017l-0.548,0.067c-0.73,0.084-1.461,0.162-2.195,0.227
						c-0.727,0.074-1.459,0.103-2.188,0.206c-2.024,0.801-3.995,1.718-5.93,2.69c-4.667,2.348-9.13,5.024-13.748,7.334
						c-1.153,0.575-2.322,1.13-3.494,1.638c-1.156,0.493-2.357,0.865-3.585,1.07c-1.227,0.207-2.478,0.244-3.726,0.135
						c-1.249-0.107-2.494-0.357-3.742-0.657c-2.49-0.602-5.042-1.375-7.731-1.552c-1.339-0.094-2.695-0.044-4.025,0.163
						c-1.331,0.204-2.633,0.56-3.885,1.024c-2.508,0.933-4.816,2.275-6.976,3.779c-1.08,0.754-2.125,1.553-3.142,2.382
						c-0.248,0.194-0.538,0.463-0.675,0.532c-0.174,0.098-0.362,0.137-0.584,0.123c-0.448-0.028-0.98-0.286-1.468-0.614
						c-0.986-0.673-1.882-1.591-2.728-2.535c-0.845-0.951-1.645-1.958-2.422-2.984c-1.555-2.055-3.021-4.191-4.513-6.322
						L8.06,53.669c-0.752-1.067-1.504-2.136-2.328-3.181c-0.207-0.261-0.42-0.52-0.646-0.777L4.967,49.58c0,0,0,0,0,0l0.188-0.035
						c2.538-0.461,5.115-0.782,7.7-1.165c2.584-0.38,5.175-0.836,7.729-1.465c2.554-0.625,5.069-1.413,7.525-2.345
						c0.61-0.23,1.232-0.479,1.826-0.72c0.582-0.232,1.176-0.429,1.78-0.591c1.209-0.325,2.456-0.501,3.714-0.548
						c2.523-0.099,5.059,0.324,7.598,0.83c1.272,0.25,2.552,0.521,3.856,0.734c1.304,0.211,2.637,0.368,3.996,0.344
						c0.679-0.012,1.362-0.07,2.04-0.191c0.339-0.061,0.676-0.137,1.009-0.23c0.165-0.045,0.337-0.099,0.492-0.15l0.465-0.152
						c1.238-0.405,2.472-0.813,3.708-1.205c2.471-0.782,4.954-1.499,7.475-1.984c2.518-0.485,5.078-0.736,7.609-0.552
						c2.529,0.178,5.015,0.818,7.277,1.945l3.502,1.74c1.181,0.572,2.396,1.114,3.666,1.536c0.207,0.068,0.182,0.058,0.233,0.073
						l0.12,0.029l0.127,0.024c0.005,0.002,0.034,0.003,0.02,0.005l-0.028,0.006l-0.059,0.012l-0.247,0.047l-0.286,0.051
						c1.105-0.118,2.221-0.146,3.328-0.036c-1.443,0.387-2.851,0.757-4.242,1.178l-1.038,0.318l-0.146,0.045
						c-0.008,0.002-0.016,0.004-0.024,0.007l0.935-0.166l2.177-0.381l1.785-0.318c0.588-0.11,1.098-0.23,1.623-0.339l0.777-0.167
						l0.401-0.086l0.098-0.021l0.062-0.016l0.123-0.033l0.291-0.075l0.048-0.012c0.03-0.004,0.019-0.008-0.018-0.013L94.035,45.482z
						"/>
					<path fill="#090808" d="M84.477,46.336c-0.611,0.16-1.221,0.328-1.826,0.521c-0.703,0.233-1.419,0.467-2.078,0.832
						c0.006,0,0.012-0.001,0.018-0.002c0.417-0.165,0.836-0.327,1.258-0.481C82.713,46.89,83.59,46.599,84.477,46.336z"/>
					<path fill="#090808" d="M85.766,45.981l-0.154,0.034c-0.38,0.101-0.758,0.208-1.135,0.321c0.104-0.027,0.207-0.057,0.312-0.084
						l0.538-0.132l0.134-0.032l0.067-0.017l0.018-0.004l0.008-0.002l0.107-0.02l0.962-0.175l1.383-0.248
						c-0.382,0.041-0.762,0.092-1.14,0.152C86.496,45.835,86.13,45.904,85.766,45.981z"/>
				</g>
			</g>
			<g>
				<linearGradient id="SVGID_19_" gradientUnits="userSpaceOnUse" x1="50.7935" y1="31.0332" x2="54.8806" y2="54.499">
					<stop  offset="0" style="stop-color:#FFFFFF"/>
					<stop  offset="1" style="stop-color:#000000"/>
				</linearGradient>
				<path fill="url(#SVGID_19_)" d="M46.451,43.738c-1.886,1.206-3.787,2.372-5.785,3.352c3.825-0.604,7.739-0.187,11.588-1.011
					c3.837-0.714,7.096-2.625,10.806-4.028c0.933-0.344,1.645-0.954,2.289-1.653c-3.854,0.792-7.644,2.097-11.214,3.255
					C51.718,44.436,49.152,44.213,46.451,43.738z"/>
			</g>
			<g>
				<linearGradient id="SVGID_20_" gradientUnits="userSpaceOnUse" x1="39.5254" y1="36.8018" x2="63.8053" y2="89.097">
					<stop  offset="0" style="stop-color:#FFFFFF"/>
					<stop  offset="1" style="stop-color:#000000"/>
				</linearGradient>
				<path fill="url(#SVGID_20_)" d="M65.35,40.398c-0.644,0.699-1.356,1.309-2.289,1.653c-3.71,1.403-6.969,3.314-10.806,4.028
					c-3.849,0.824-7.764,0.407-11.588,1.011c1.998-0.98,3.899-2.146,5.785-3.352c-5.185-0.911-10.871-2.755-16.978-0.227
					c-10.492,4.265-17.453,4.243-24.975,5.665c3.469,1.663,6.248,4.637,9.306,7.5c1.942,1.719,4.307,2.373,6.582,2.009
					c4.137-0.673,8.011-1.718,11.997-2.858c-1.178-1.279-3.265-0.777-4.717-1.422c1.821-1.77,4.097-2.134,6.273-1.615
					c4.441,1.159,8.497,3.05,13.186,2.899c6.126-0.292,11.837-1.425,17.293-4.831c3.945-2.603,7.454-4.928,11.586-7.394
					c1.199-0.734,2.524-0.779,3.85-0.825c1.048-0.026,2.104-0.005,3.159,0.015c-0.525-0.265-1.064-0.536-1.624-0.811
					C76.191,39.188,70.707,39.297,65.35,40.398z"/>
			</g>
			<linearGradient id="SVGID_21_" gradientUnits="userSpaceOnUse" x1="69.4658" y1="36.8462" x2="54.9995" y2="50.6111">
				<stop  offset="0" style="stop-color:#FFFFFF"/>
				<stop  offset="1" style="stop-color:#000000"/>
			</linearGradient>
			<ellipse fill="url(#SVGID_21_)" cx="51.654" cy="53.794" rx="0.977" ry="0.755"/>
			<linearGradient id="SVGID_22_" gradientUnits="userSpaceOnUse" x1="75.1201" y1="33.9487" x2="60.6516" y2="47.7158">
				<stop  offset="0" style="stop-color:#FFFFFF"/>
				<stop  offset="1" style="stop-color:#000000"/>
			</linearGradient>
			<ellipse fill="url(#SVGID_22_)" cx="57.306" cy="50.898" rx="0.976" ry="0.756"/>
			<linearGradient id="SVGID_23_" gradientUnits="userSpaceOnUse" x1="35.1948" y1="38.4727" x2="23.1893" y2="49.8961">
				<stop  offset="0" style="stop-color:#FFFFFF"/>
				<stop  offset="1" style="stop-color:#000000"/>
			</linearGradient>
			<ellipse fill="url(#SVGID_23_)" cx="20.413" cy="52.538" rx="0.837" ry="0.587"/>
			<g>
				<linearGradient id="SVGID_24_" gradientUnits="userSpaceOnUse" x1="87.9199" y1="46.0078" x2="88.0959" y2="46.7516">
					<stop  offset="0" style="stop-color:#FFFFFF"/>
					<stop  offset="1" style="stop-color:#000000"/>
				</linearGradient>
				<path fill="url(#SVGID_24_)" d="M84.69,46.956c0.271-0.05,0.547-0.101,0.823-0.151c1.906-0.52,3.838-0.886,5.8-1.046
					c-0.331-0.055-0.652-0.118-0.968-0.187C88.457,46.002,86.571,46.458,84.69,46.956z"/>
			</g>
		</g>
		<g>
			<g>
				<path fill="#740545" d="M102.693,51.201c-5.601-0.91-11.144-1.365-16.646-2.151l-5.039,8.23
					c1.994,3.827,9.992,4.358,13.619,4.915c5.737,0.703,11.803,0.55,15.941-3.982C115.601,52.781,106.858,51.936,102.693,51.201z"/>
				<g>
					<path fill="#090808" d="M111.848,52.854c-0.307-0.253-0.625-0.453-0.941-0.624c-0.637-0.341-1.273-0.575-1.908-0.772
						c-1.268-0.389-2.525-0.626-3.771-0.836l-1.849-0.295l-0.927-0.148l-0.933-0.138c-1.24-0.178-2.482-0.336-3.723-0.482
						l-1.861-0.211l-0.93-0.101l-0.234-0.018c-0.578-0.041-1.158-0.076-1.737-0.105c-2.319-0.111-4.636-0.163-6.987-0.072
						c2.234,0.746,4.52,1.235,6.802,1.661c0.571,0.104,1.142,0.204,1.713,0.299l0.231,0.037l0.924,0.12l1.844,0.246
						c1.228,0.167,2.451,0.344,3.671,0.537l0.912,0.147l0.914,0.158l1.833,0.315c1.206,0.216,2.396,0.456,3.506,0.806
						c0.552,0.176,1.084,0.382,1.544,0.633c0.46,0.246,0.837,0.557,0.997,0.84c0.082,0.142,0.12,0.27,0.129,0.421
						c0.009,0.15-0.02,0.331-0.089,0.532c-0.138,0.403-0.429,0.854-0.775,1.278c-0.726,0.875-1.582,1.655-2.533,2.278
						c-0.952,0.626-2.003,1.104-3.112,1.441c-2.222,0.679-4.637,0.807-7.048,0.688c-0.604-0.029-1.21-0.074-1.817-0.133
						l-0.898-0.093l-0.925-0.122c-1.243-0.155-2.465-0.296-3.673-0.484c-0.604-0.094-1.203-0.197-1.797-0.316l-0.293-0.059
						l-0.104-0.018l-0.209-0.036c-0.276-0.049-0.553-0.1-0.827-0.155c-1.099-0.22-2.183-0.493-3.211-0.902
						c-1.021-0.415-2.014-0.96-2.747-1.89c0.174,0.563,0.492,1.097,0.892,1.56c0.399,0.466,0.874,0.865,1.378,1.212
						c1.013,0.69,2.135,1.177,3.268,1.569c0.283,0.097,0.568,0.186,0.855,0.271l0.215,0.063l0.107,0.03l0.073,0.02l0.233,0.054
						c0.623,0.141,1.247,0.264,1.871,0.374c1.245,0.223,2.494,0.392,3.717,0.566l0.923,0.14l0.956,0.115
						c0.63,0.07,1.265,0.128,1.902,0.169c2.544,0.16,5.182,0.067,7.74-0.69c1.273-0.378,2.516-0.931,3.645-1.669
						c1.133-0.738,2.139-1.649,3-2.691c0.434-0.539,0.853-1.135,1.124-1.91c0.132-0.387,0.22-0.83,0.192-1.302
						c-0.022-0.47-0.175-0.953-0.412-1.346C112.452,53.418,112.153,53.106,111.848,52.854z"/>
				</g>
			</g>
			<g>
				<linearGradient id="SVGID_25_" gradientUnits="userSpaceOnUse" x1="96.3125" y1="45.8027" x2="102.7327" y2="76.3207">
					<stop  offset="0" style="stop-color:#FFFFFF"/>
					<stop  offset="1" style="stop-color:#000000"/>
				</linearGradient>
				<path fill="url(#SVGID_25_)" d="M102.657,51.836c-4.53-0.712-9.021-1.168-13.483-1.721c-1.54,0.496-2.986,1.29-4.081,2.472
					c-0.935,1.161-1,2.624-0.027,3.921c0.985,1.199,2.104,2.219,3.865,2.631c6.925,1.407,13.925,1.006,20.766-0.16
					c0.351-0.263,0.692-0.547,1.019-0.859C115.703,53.434,106.871,52.548,102.657,51.836z"/>
			</g>
			<g>
				<g>
					<path fill="#F9AE41" d="M98.403,50.077c-1.847,1.01-3.54,6.431-3.752,8.492c-0.208,2.037,0.653,4.005,2.777,4.306
						c0.995,0.141,2.049-0.173,3.042-0.233c0.688-0.041,1.35,0.044,2.016,0.135c0.244-4.114,1.703-8.07,3.375-11.81
						C103.358,50.495,100.547,48.905,98.403,50.077z"/>
					<g>
						<path d="M103.858,49.741c-1.213-0.37-2.467-0.753-3.669-0.753c-0.797,0-1.486,0.165-2.106,0.504
							c-2.182,1.193-3.882,6.928-4.095,9.009c-0.275,2.689,1.069,4.712,3.348,5.034c0.202,0.028,0.41,0.043,0.636,0.043
							c0.521,0,1.031-0.076,1.525-0.148c0.355-0.053,0.691-0.103,1.014-0.122c0.614-0.037,1.182,0.034,1.886,0.13l0.713,0.097
							l0.043-0.718c0.25-4.221,1.817-8.221,3.317-11.578l0.345-0.77l-0.83-0.157C105.306,50.184,104.603,49.969,103.858,49.741z
							 M101.875,62.027c-0.481-0.053-0.952-0.08-1.445-0.051c-0.379,0.023-0.76,0.079-1.127,0.133
							c-0.467,0.069-0.908,0.135-1.331,0.135c-0.163,0-0.31-0.01-0.45-0.029c-1.872-0.265-2.358-2.093-2.207-3.578
							c0.219-2.132,1.936-7.168,3.408-7.975c0.42-0.229,0.898-0.34,1.467-0.34c1.003,0,2.16,0.354,3.279,0.696
							c0.479,0.146,0.968,0.295,1.455,0.421C103.564,54.557,102.229,58.171,101.875,62.027z"/>
					</g>
				</g>
				<g>
					<path fill="#F53CA5" d="M117.864,51.578c-2.803-0.017-7.308-0.617-10.618-0.489c-0.446,0.018-0.91-0.032-1.385-0.122
						c-1.672,3.739-3.131,7.695-3.375,11.81c0.334,0.046,0.67,0.093,1.01,0.126c2.449,0.236,4.959,0.135,7.415,0.053
						c5.776-0.191,11.586-2.12,14.452-6.496C128.858,51.207,121.441,51.647,117.864,51.578z"/>
					<g>
						<path d="M125.815,52.135c-0.688-0.467-1.411-0.656-2.111-0.801l-0.263-0.049l-0.063-0.008l-0.075-0.01l-0.151-0.016
							c-0.201-0.02-0.401-0.034-0.602-0.044c-1.598-0.069-3.143,0.111-4.687,0.37c1.542,0.307,3.093,0.424,4.568,0.693
							c0.184,0.033,0.366,0.068,0.547,0.107l0.135,0.029l0.067,0.016l0.289,0.058c0.615,0.131,1.222,0.325,1.65,0.633
							c0.432,0.313,0.593,0.677,0.53,1.188c-0.064,0.511-0.342,1.076-0.675,1.603c-0.682,1.081-1.563,2.023-2.578,2.81
							c-2.037,1.578-4.542,2.529-7.106,3.057c-1.286,0.263-2.599,0.419-3.915,0.485c-1.329,0.05-2.692,0.098-4.022,0.109
							c-1.005,0.009-2.006-0.01-2.998-0.075c-0.248-0.017-0.495-0.037-0.741-0.06l-0.363-0.038l-0.039-0.005l0,0l0,0h-0.001
							c-0.002,0.001-0.002-0.001-0.003-0.002v0.001l0.016-0.177l0.039-0.367c0.243-2.116,0.793-4.202,1.507-6.238
							c0.357-1.019,0.755-2.026,1.177-3.028l0.29-0.677l0.009-0.024c0.008-0.002,0.011,0,0.028,0.001l0.097,0.011
							c0.075,0.008,0.149,0.016,0.226,0.021c0.151,0.013,0.306,0.017,0.46,0.018l0.831-0.023c1.072-0.018,2.157,0.022,3.244,0.081
							l0.777,0.044l0.117,0.002l0.234,0.005l0.94,0.014c1.543,0.004,3.11-0.006,4.663-0.27c-1.537-0.299-3.049-0.58-4.585-0.794
							l-0.937-0.122l-0.235-0.028l-0.117-0.013l-0.785-0.055c-1.103-0.073-2.211-0.127-3.333-0.121l-0.813,0.015
							c-0.119-0.002-0.239-0.006-0.361-0.018l-0.185-0.019l-0.046-0.005l-0.088-0.013l-0.178-0.026l-0.393-0.069l-0.197-0.036
							c-0.063-0.005-0.148-0.055-0.158,0.038l-0.325,0.727l-0.366,0.833c-0.439,1.016-0.855,2.046-1.231,3.095
							c-0.751,2.096-1.342,4.276-1.607,6.522l-0.042,0.391l-0.02,0.203l-0.029,0.379l-0.054,0.756l-0.007,0.096l-0.003,0.047
							c0.01,0.007,0.029,0.006,0.044,0.009L102,63.394l0.376,0.052l0.716,0.094l0.395,0.043c0.26,0.023,0.52,0.046,0.778,0.063
							c1.038,0.071,2.071,0.09,3.1,0.082c1.372-0.012,2.71-0.06,4.081-0.115c1.381-0.071,2.76-0.24,4.119-0.523
							c2.708-0.571,5.393-1.596,7.631-3.356c1.112-0.876,2.095-1.948,2.841-3.163c0.372-0.617,0.728-1.287,0.833-2.125
							c0.049-0.415,0.006-0.89-0.193-1.313C126.479,52.703,126.152,52.369,125.815,52.135z"/>
					</g>
				</g>
				<g>
					<path fill="#F53CA5" d="M110.104,51.772l7.006,8.233c2.055,1.02,4.975,2.722,7.047,1.254c1.024-0.639,2.674-3.307,3.371-4.368
						c1.36-1.843,1.695-3.046,0.046-5.068C124.274,47.777,115.063,50.588,110.104,51.772z"/>
					<g>
						<path d="M128.533,51.969c-0.219-0.314-0.437-0.599-0.719-0.896c-0.551-0.575-1.228-1.01-1.932-1.307
							c-0.707-0.299-1.439-0.477-2.167-0.582c-1.458-0.204-2.898-0.144-4.307,0.01c-0.704,0.08-1.402,0.185-2.095,0.309
							c-0.346,0.062-0.689,0.128-1.033,0.199l-0.514,0.109l-0.151,0.038c-0.378,0.097-0.755,0.201-1.128,0.311
							c-1.496,0.444-2.951,0.979-4.385,1.614c1.568-0.09,3.101-0.342,4.619-0.574l1.135-0.179l0.15-0.024l0.505-0.093
							c0.336-0.061,0.673-0.118,1.009-0.17c0.674-0.106,1.348-0.193,2.02-0.257c1.343-0.124,2.692-0.156,3.979,0.037
							c1.277,0.192,2.499,0.644,3.314,1.503c0.195,0.204,0.402,0.469,0.578,0.724c0.177,0.256,0.328,0.517,0.432,0.774
							c0.215,0.521,0.217,0.994,0.012,1.527c-0.101,0.264-0.247,0.535-0.416,0.805c-0.084,0.135-0.175,0.27-0.268,0.404
							l-0.148,0.209c-0.027,0.035-0.061,0.085-0.089,0.13l-0.071,0.11c-0.375,0.587-0.74,1.163-1.121,1.728
							c-0.38,0.562-0.771,1.116-1.19,1.613c-0.207,0.245-0.43,0.482-0.634,0.642c-0.247,0.183-0.471,0.315-0.738,0.41
							c-0.262,0.094-0.546,0.142-0.842,0.153l-0.214,0.006l-0.126,0.001c-0.17,0-0.344-0.012-0.52-0.03
							c-0.703-0.074-1.428-0.275-2.153-0.504c-0.727-0.229-1.461-0.494-2.216-0.712c0.627,0.471,1.26,0.926,1.945,1.322
							c0.684,0.396,1.416,0.742,2.234,0.946c0.205,0.05,0.414,0.089,0.63,0.115l0.162,0.017l0.082,0.006l0.052,0.003l0.148,0.001
							c0.396-0.004,0.805-0.059,1.199-0.188c0.392-0.122,0.774-0.338,1.086-0.563c0.349-0.26,0.601-0.531,0.849-0.808
							c0.485-0.552,0.903-1.124,1.309-1.7c0.404-0.576,0.789-1.163,1.167-1.738l0.07-0.107c0.018-0.027,0.033-0.051,0.059-0.083
							l0.155-0.213c0.105-0.148,0.21-0.3,0.311-0.457c0.2-0.314,0.392-0.652,0.542-1.034c0.148-0.379,0.251-0.812,0.25-1.256
							c0-0.445-0.102-0.881-0.256-1.262C128.949,52.623,128.748,52.282,128.533,51.969z"/>
					</g>
				</g>
				<g>
					<linearGradient id="SVGID_26_" gradientUnits="userSpaceOnUse" x1="109.6895" y1="50.1226" x2="112.5165" y2="83.5512">
						<stop  offset="0" style="stop-color:#FFFFFF"/>
						<stop  offset="1" style="stop-color:#000000"/>
					</linearGradient>
					<path fill="url(#SVGID_26_)" d="M107.246,51.317c-2.204,0.086-4.845-1.458-7.113-1.432c0.218,0.314,0.287,0.793,0.096,1.197
						c-0.932,2.125-2.125,4.555-1.168,6.799c1.141-1.091,1.896-2.679,3.341-3.51c-0.437,1.738-1.132,4.677,1.516,5.001
						c1.655,0.202,3.46,0.088,5.155-0.04c3.254-0.05,7.602-0.373,10.047-1.793c0.648-2.361,1.618-4.838,2.086-7.309
						c-2.233,0.252-4.614,0.964-6.654,1.576C112.854,51.846,109.252,51.24,107.246,51.317z"/>
				</g>
				<linearGradient id="SVGID_27_" gradientUnits="userSpaceOnUse" x1="120.7334" y1="42.583" x2="110.6673" y2="52.161">
					<stop  offset="0" style="stop-color:#FFFFFF"/>
					<stop  offset="1" style="stop-color:#000000"/>
				</linearGradient>
				<ellipse fill="url(#SVGID_27_)" cx="108.34" cy="54.376" rx="0.639" ry="0.579"/>
				<linearGradient id="SVGID_28_" gradientUnits="userSpaceOnUse" x1="136.8633" y1="29.7046" x2="117.2707" y2="48.3472">
					<stop  offset="0" style="stop-color:#FFFFFF"/>
					<stop  offset="1" style="stop-color:#000000"/>
				</linearGradient>
				<path fill="url(#SVGID_28_)" d="M112.199,51.607c-0.588,0-1.065,0.366-1.065,0.818c0,0.453,0.478,0.82,1.065,0.82
					c0.589,0,2.354,0.069,2.354-0.317C114.553,52.541,112.788,51.607,112.199,51.607z"/>
				<g>
					<linearGradient id="SVGID_29_" gradientUnits="userSpaceOnUse" x1="111.5703" y1="48.9922" x2="111.2722" y2="68.3689">
						<stop  offset="0" style="stop-color:#FFFFFF"/>
						<stop  offset="1" style="stop-color:#000000"/>
					</linearGradient>
					<path fill="url(#SVGID_29_)" d="M121.205,50.035c-0.468,2.471-1.438,4.948-2.086,7.308c-2.445,1.421-6.793,1.711-10.047,1.761
						c-1.695,0.128-3.5,0.242-5.155,0.04c-2.647-0.324-1.952-3.263-1.516-5.001c-1.445,0.831-2.2,2.418-3.341,3.51
						c-0.957-2.244,0.236-4.674,1.168-6.799c0.191-0.403,0.122-0.882-0.096-1.197c-0.608,0.007-1.19,0.125-1.729,0.42
						c-1.847,1.01-3.54,6.431-3.752,8.492c-0.05,0.489-0.038,0.976,0.039,1.436c2.667,1.524,5.979,1.411,8.997,1.015
						c4.686-0.771,10.537-2.367,14.479-2.071c1.026,0.127,2.01,1.397,3.246,1.359c4.062,0.074,5.093-4.293,6.891-7.412
						c-0.177-0.335-0.417-0.688-0.73-1.072C126.136,50.06,123.768,49.745,121.205,50.035z"/>
				</g>
				<g>
					<g>
						<path fill="#090808" d="M127.146,53.772c-0.151-0.326-0.346-0.642-0.59-0.919c-0.214-0.244-0.465-0.46-0.743-0.629
							c-0.166-0.106-0.341-0.197-0.52-0.274c-0.642-0.272-1.33-0.357-1.993-0.306c0.64,0.186,1.256,0.391,1.789,0.71
							c0.149,0.089,0.293,0.186,0.428,0.291c0.219,0.18,0.418,0.376,0.604,0.589c0.212,0.241,0.405,0.505,0.593,0.781
							c0.061,0.096,0.12,0.192,0.177,0.291c0.324,0.552,0.604,1.146,0.931,1.728c-0.099-0.659-0.263-1.305-0.523-1.931
							C127.251,53.992,127.201,53.882,127.146,53.772z"/>
					</g>
					<g>
						<path fill="#090808" d="M125.307,56.723c-0.152-0.326-0.346-0.641-0.59-0.92c-0.214-0.244-0.465-0.459-0.743-0.627
							c-0.166-0.107-0.341-0.198-0.52-0.275c-0.642-0.273-1.33-0.357-1.993-0.305c0.64,0.185,1.256,0.391,1.789,0.709
							c0.149,0.09,0.293,0.186,0.428,0.291c0.219,0.18,0.418,0.376,0.604,0.588c0.212,0.242,0.404,0.506,0.593,0.781
							c0.06,0.096,0.119,0.193,0.177,0.292c0.323,0.552,0.604,1.146,0.93,1.728c-0.098-0.66-0.263-1.305-0.522-1.931
							C125.411,56.942,125.36,56.832,125.307,56.723z"/>
					</g>
				</g>
				<g>
					<path fill="#090808" d="M121.165,60.317c-0.093-0.079-0.188-0.153-0.284-0.228c-0.002-0.035-0.014-0.059-0.032-0.071
						c-0.012-0.007-0.025-0.011-0.043-0.01l-0.013,0.002l-0.008,0.001l-0.004,0.001l-0.053-0.031
						c-0.145-0.085-0.291-0.166-0.439-0.243c-0.594-0.301-1.206-0.57-1.86-0.719c0.554,0.366,1.093,0.738,1.626,1.107l0.396,0.28
						l0.048,0.034v0.004l0.001,0.007l0.004,0.013c0.005,0.016,0.013,0.027,0.023,0.034c0.018,0.013,0.042,0.013,0.075,0.002
						l0.291,0.181c0.263,0.172,0.539,0.355,0.709,0.572c0.039,0.057,0.06,0.085,0.063,0.142c0.002,0.054-0.028,0.102-0.076,0.142
						c-0.111,0.088-0.275,0.145-0.433,0.191c0.167,0.01,0.335,0.016,0.515-0.053c0.093-0.04,0.189-0.118,0.219-0.229
						c0.036-0.105,0.001-0.243-0.037-0.329C121.681,60.768,121.419,60.543,121.165,60.317z"/>
				</g>
			</g>
		</g>
		<g>
			<g>
				<g>
					<g>
						<linearGradient id="SVGID_30_" gradientUnits="userSpaceOnUse" x1="107.748" y1="13.6152" x2="80.5624" y2="33.66">
							<stop  offset="0" style="stop-color:#FFFFFF"/>
							<stop  offset="1" style="stop-color:#000000"/>
						</linearGradient>
						<path fill="url(#SVGID_30_)" d="M81.068,27.217c-0.584,1.661-1.563,3.009-2.459,4.438c0.005,0.337,0.009,0.671,0.012,0.997
							c-0.018,2.385-0.34,4.698-0.617,7.09c0.627,0.234,1.209,0.429,1.748,0.587c0.813-1.959,1.392-4.065,1.95-5.999
							c-0.563,0.788-1.104,1.479-1.666,2.268C80.731,33.486,80.67,30.297,81.068,27.217z"/>
					</g>
					<g>
						<path fill="#FFCF99" d="M88.801,18.582l1.606-0.606c-0.277,0.261-0.608,0.564-0.894,0.875
							c-2.709,2.823-2.302,8.115-4.176,11.634c-1.41,2.677-2.611,5.889-2.02,9.044c0.859,4.474,7.371,6.969,11.009,8.479
							c6.438,2.627,12.885,2.364,16.19-6.685c1.072-2.937,3.264-5.779,3.615-8.934c0.445-3.751,3.578-7.318,2.631-10.962
							C113.807,9.729,94.71,13.193,88.801,18.582z"/>
						<g>
							<path fill="#090808" d="M117.54,20.961c-0.095-0.339-0.205-0.676-0.331-1.007c-0.253-0.663-0.572-1.306-0.96-1.908
								c-0.772-1.207-1.824-2.232-3.011-3c-1.188-0.772-2.498-1.304-3.829-1.657c-2.674-0.699-5.423-0.743-8.091-0.449
								c-1.337,0.151-2.66,0.394-3.961,0.721c-0.651,0.164-1.297,0.35-1.936,0.557l-0.064,0.021l-0.023,0.009l-0.045,0.017
								L95.197,14.3c-0.485,0.185-0.965,0.388-1.436,0.607c-0.94,0.444-1.852,0.954-2.699,1.557
								c-0.846,0.603-1.637,1.301-2.262,2.118c0.871-0.542,1.773-0.972,2.688-1.359c0.914-0.385,1.843-0.722,2.783-1.017
								c0.47-0.149,0.941-0.289,1.416-0.419l0.217-0.062c0.606-0.19,1.219-0.361,1.837-0.511c1.235-0.3,2.491-0.52,3.753-0.652
								c2.518-0.26,5.088-0.188,7.479,0.454c1.19,0.324,2.329,0.799,3.33,1.459c1.003,0.657,1.859,1.504,2.492,2.503
								c0.318,0.499,0.582,1.033,0.792,1.592c0.204,0.555,0.388,1.162,0.448,1.686c0.134,1.097-0.143,2.271-0.562,3.442
								c-0.419,1.177-0.975,2.36-1.447,3.63c-0.236,0.636-0.451,1.296-0.606,1.989c-0.076,0.34-0.14,0.716-0.177,1.049
								c-0.036,0.292-0.089,0.58-0.157,0.87c-0.273,1.16-0.787,2.303-1.357,3.45c-0.571,1.15-1.21,2.309-1.746,3.57
								c-0.066,0.158-0.132,0.317-0.194,0.479l-0.176,0.468c-0.11,0.294-0.227,0.584-0.35,0.872
								c-0.246,0.574-0.519,1.132-0.823,1.668c-0.607,1.069-1.344,2.05-2.234,2.834c-0.887,0.787-1.928,1.364-3.062,1.679
								c-1.132,0.319-2.347,0.381-3.561,0.259c-1.216-0.122-2.432-0.421-3.62-0.824c-0.298-0.101-0.594-0.208-0.889-0.322
								l-0.438-0.174l-0.452-0.186c-0.605-0.248-1.203-0.494-1.795-0.749c-1.184-0.51-2.341-1.053-3.438-1.676
								c-1.093-0.623-2.131-1.327-2.997-2.163c-0.862-0.833-1.535-1.813-1.784-2.888c-0.123-0.547-0.182-1.163-0.181-1.755
								c0.001-0.599,0.062-1.204,0.169-1.805c0.217-1.204,0.621-2.393,1.127-3.546c0.127-0.289,0.26-0.576,0.398-0.861l0.212-0.427
								l0.226-0.438c0.32-0.637,0.563-1.293,0.763-1.947c0.398-1.31,0.64-2.615,0.911-3.881l0.103-0.473l0.013-0.057l0.002-0.011
								l0.004-0.023l0.016-0.092l0.032-0.184l0.134-0.728c0.185-0.965,0.407-1.909,0.765-2.802c0.179-0.446,0.394-0.88,0.658-1.292
								c0.269-0.416,0.58-0.82,0.887-1.233c-0.432,0.276-0.858,0.564-1.257,0.908c-0.402,0.348-0.755,0.758-1.058,1.199
								c-0.606,0.886-1.018,1.878-1.349,2.863c-0.082,0.248-0.159,0.495-0.232,0.743l-0.054,0.186l-0.026,0.093l-0.007,0.023
								l-0.003,0.011l-0.014,0.059l-0.11,0.484c-0.287,1.286-0.538,2.553-0.913,3.742c-0.188,0.593-0.407,1.165-0.68,1.694
								l-0.226,0.431l-0.229,0.449c-0.149,0.301-0.294,0.606-0.433,0.915c-0.553,1.233-1.011,2.533-1.269,3.901
								c-0.255,1.371-0.307,2.795-0.001,4.229c0.168,0.739,0.475,1.436,0.864,2.056c0.391,0.622,0.858,1.174,1.362,1.668
								c1.012,0.987,2.156,1.762,3.326,2.438c1.174,0.675,2.384,1.248,3.599,1.778c0.607,0.265,1.217,0.518,1.82,0.769l0.453,0.188
								l0.472,0.189c0.314,0.123,0.633,0.239,0.953,0.35c1.283,0.439,2.62,0.778,4.007,0.922c1.383,0.143,2.825,0.082,4.214-0.305
								c1.389-0.38,2.691-1.103,3.76-2.05c1.075-0.945,1.926-2.087,2.607-3.287c0.342-0.601,0.644-1.219,0.912-1.846
								c0.135-0.314,0.262-0.63,0.381-0.948l0.168-0.449l0.175-0.43c0.485-1.146,1.107-2.281,1.698-3.472
								c0.59-1.19,1.164-2.446,1.492-3.836c0.081-0.346,0.146-0.702,0.189-1.059c0.035-0.316,0.082-0.585,0.146-0.883
								c0.129-0.583,0.316-1.169,0.534-1.759c0.435-1.181,0.989-2.37,1.446-3.657c0.227-0.644,0.428-1.317,0.555-2.026
								c0.127-0.708,0.174-1.458,0.082-2.209C117.724,21.68,117.632,21.283,117.54,20.961z"/>
						</g>
					</g>
					<g>
						<linearGradient id="SVGID_31_" gradientUnits="userSpaceOnUse" x1="119.1201" y1="29.6738" x2="69.84" y2="35.0258">
							<stop  offset="0" style="stop-color:#FFFFFF"/>
							<stop  offset="1" style="stop-color:#000000"/>
						</linearGradient>
						<path fill="url(#SVGID_31_)" d="M88.801,18.582l1.606-0.606c-0.277,0.261-0.608,0.564-0.894,0.875
							c-2.709,2.823-2.302,8.115-4.176,11.634c-1.41,2.677-2.611,5.889-2.02,9.044c0.859,4.474,7.371,6.969,11.009,8.479
							c6.438,2.627,12.885,2.364,16.19-6.685c1.072-2.937,3.264-5.779,3.615-8.934c0.445-3.751,3.578-7.318,2.631-10.962
							C113.807,9.729,94.71,13.193,88.801,18.582z"/>
					</g>
					<g opacity="0.5">
						<path fill="#B3614A" d="M88.801,18.582l1.606-0.606c-0.277,0.261-0.608,0.564-0.894,0.875
							c-0.262,0.274-0.495,0.571-0.704,0.888c6.465-0.408,9.357-1.982,16.069-2.124c0.572,0.034,4.406,0.002,4.893,0.424
							c2.396,1.861,5.563,4.246,6.775,7.202c1.102-1.25,0.632-2.217,0.217-3.814C113.807,9.729,94.71,13.193,88.801,18.582z"/>
					</g>
					<g opacity="0.5">
						<path fill="#B3614A" d="M96.75,46.262c-3.637-1.509-10.148-4.004-11.008-8.479c-0.592-3.155,0.609-6.367,2.02-9.044
							c1.873-3.52,1.467-8.811,4.176-11.634c0.285-0.311,0.616-0.614,0.893-0.875l-1.406,0.53c-1.028,0.565-1.92,1.179-2.623,1.821
							l1.606-0.606c-0.277,0.261-0.608,0.564-0.894,0.875c-2.709,2.823-2.302,8.115-4.176,11.634
							c-1.41,2.677-2.611,5.889-2.02,9.044c0.859,4.474,7.371,6.969,11.009,8.479c4.714,1.923,9.433,2.296,12.919-1.192
							C104.142,48.325,100.444,47.77,96.75,46.262z"/>
					</g>
					<path opacity="0.5" fill="#B3614A" d="M109.979,42.62c-0.23-0.123-13.693-5.123-22.243-16.871c0,0,0.746,3.958,2.265,7.163
						c1.518,3.205,14.941,11.343,17.885,11.583C110.827,44.734,110.209,42.743,109.979,42.62z"/>
					<g>
						<path fill="#F53CA5" d="M79.607,13.76c0.013,0.158-1.494,9.572-1.334,9.507c0,0,10.171,1.853,12.945,8.043
							c2.774,6.189,17.68,12.597,17.68,12.597l2.955,1.266c0,0,0.881-4.809,1.594-7.353c0.713-2.545,3.248-6.756,3.248-6.756
							C108.767,14.844,79.594,13.604,79.607,13.76z"/>
						<path d="M96.512,15.956c-7.895-2.37-15.313-2.883-16.728-2.883c-0.206,0-0.464,0-0.675,0.229l-0.201,0.22l0.021,0.237
							c-0.03,0.249-0.193,1.318-0.365,2.448c-1.091,7.173-1.091,7.173-0.806,7.502l0.207,0.237l0.248-0.002
							c0.833,0.165,9.897,2.084,12.389,7.643c2.85,6.356,17.411,12.676,18.03,12.942l3.734,1.6l0.152-0.833
							c0.009-0.048,0.884-4.808,1.58-7.293c0.68-2.427,3.151-6.548,3.177-6.589l0.189-0.315l-0.162-0.331
							C114.09,24.196,106.9,19.074,96.512,15.956z M112.797,37.638c-0.541,1.931-1.166,5.086-1.451,6.583l-2.181-0.934
							c-0.146-0.063-14.694-6.375-17.329-12.253c-2.525-5.631-10.582-7.801-12.854-8.31c0.149-1.254,0.636-4.456,0.919-6.314
							c0.149-0.983,0.241-1.592,0.298-1.976c2.065,0.078,8.776,0.67,15.925,2.816c6.891,2.068,15.869,6.133,19.804,13.788
							C115.313,32.087,113.418,35.421,112.797,37.638z"/>
					</g>
					<linearGradient id="SVGID_32_" gradientUnits="userSpaceOnUse" x1="109.2695" y1="28.3086" x2="68.3823" y2="48.7522">
						<stop  offset="0" style="stop-color:#FFFFFF"/>
						<stop  offset="1" style="stop-color:#000000"/>
					</linearGradient>
					<path fill="url(#SVGID_32_)" d="M97.531,16.981c-1.916,1.935-3.326,4.577-3.18,7.453c0.292,5.189,3.728,9.283,7.43,12.62
						c3.152,2.875,6.613,5.187,10.273,7.059c0.301-1.563,0.889-4.493,1.393-6.292c0.713-2.545,1.621-6.347,1.621-6.347
						C111.477,24.125,105.153,19.443,97.531,16.981z"/>
					<g>
						<linearGradient id="SVGID_33_" gradientUnits="userSpaceOnUse" x1="110.7441" y1="16.2354" x2="102.2891" y2="24.2804">
							<stop  offset="0" style="stop-color:#FFFFFF"/>
							<stop  offset="1" style="stop-color:#000000"/>
						</linearGradient>
						<path fill="url(#SVGID_33_)" d="M100.389,25.623c-0.276-0.028-0.524,0.18-0.555,0.466c-0.029,0.286,0.17,0.541,0.446,0.57
							c0.276,0.029,0.524-0.18,0.555-0.466C100.865,25.908,100.665,25.652,100.389,25.623z"/>
						<linearGradient id="SVGID_34_" gradientUnits="userSpaceOnUse" x1="117.8223" y1="4.1216" x2="101.742" y2="19.4222">
							<stop  offset="0" style="stop-color:#FFFFFF"/>
							<stop  offset="1" style="stop-color:#000000"/>
						</linearGradient>
						<path fill="url(#SVGID_34_)" d="M97.844,22.569c-0.326-0.034-0.619,0.218-0.655,0.563c-0.036,0.344,0.198,0.652,0.524,0.686
							c0.326,0.034,0.619-0.218,0.655-0.563S98.17,22.604,97.844,22.569z"/>
						<linearGradient id="SVGID_35_" gradientUnits="userSpaceOnUse" x1="114.2285" y1="14.647" x2="102.8545" y2="25.4695">
							<stop  offset="0" style="stop-color:#FFFFFF"/>
							<stop  offset="1" style="stop-color:#000000"/>
						</linearGradient>
						<path fill="url(#SVGID_35_)" d="M98.247,29.262c-0.313-0.033-0.599,0.234-0.637,0.598c-0.038,0.362,0.185,0.683,0.499,0.716
							c0.313,0.032,0.598-0.235,0.636-0.598C98.783,29.615,98.561,29.294,98.247,29.262z"/>
					</g>
					<linearGradient id="SVGID_36_" gradientUnits="userSpaceOnUse" x1="115.375" y1="27.6045" x2="63.0016" y2="33.2684">
						<stop  offset="0" style="stop-color:#FFFFFF"/>
						<stop  offset="1" style="stop-color:#000000"/>
					</linearGradient>
					<path fill="url(#SVGID_36_)" d="M94.352,24.434c-0.146-2.875,1.264-5.518,3.18-7.453c-5.82-1.88-11.447-2.705-14.799-3.035
						c-0.956,3.2-1.714,6.568-2.044,9.931c3.188,0.959,8.617,3.165,10.53,7.433c2.774,6.189,17.68,12.597,17.68,12.597l2.955,1.266
						c0,0,0.076-0.414,0.201-1.062c-3.66-1.872-7.121-4.184-10.273-7.059C98.079,33.717,94.644,29.623,94.352,24.434z"/>
					<g>
						<g>
							<path fill="#FFFFFF" d="M94.251,41.657c-0.216,0.102,4.235,2.03,4.718,3.118c0,0,1.098-1.889,3.227-1.896L96.15,38.78
								C96.15,38.78,94.467,41.555,94.251,41.657z"/>
							<path fill="#EA2B7B" d="M95.896,38.626c-0.743,1.225-1.609,2.581-1.805,2.779l-0.141,0.072l-0.004,0.184
								c-0.006,0.242,0.109,0.302,1.21,0.884c1.14,0.603,3.263,1.724,3.54,2.35l0.234,0.528l0.293-0.499
								c0.01-0.017,1.045-1.743,2.971-1.749l0.962-0.003l-7.099-4.814L95.896,38.626z M101.365,42.675
								c-1.221,0.276-2.021,1.102-2.4,1.587c-0.619-0.67-2.021-1.444-3.53-2.242c-0.269-0.142-0.561-0.296-0.755-0.407
								c0.244-0.321,0.695-0.991,1.563-2.413L101.365,42.675z"/>
						</g>
						<g>
							<path fill="#FFFFFF" d="M96.982,41.462l2.078,1.432C98.258,42.221,97.9,41.493,96.982,41.462z"/>
							<path fill="#FFFFFF" d="M99.061,42.894c0.199,0.168,0.426,0.332,0.697,0.481L99.061,42.894z"/>
							<path fill="#FFFFFF" d="M96.21,41.567c0.301-0.084,0.551-0.113,0.772-0.105l-0.814-0.561
								C96.191,41.138,96.355,41.254,96.21,41.567z"/>
							<g>
								<path fill="#090808" d="M98.674,42.286l-0.184-0.21c-0.121-0.155-0.257-0.306-0.424-0.438
									c-0.145-0.115-0.316-0.213-0.503-0.268c-0.157-0.055-0.323-0.083-0.483-0.086c-0.171-0.003-0.337,0.019-0.494,0.055
									l-0.06,0.015c-0.021,0.005-0.02,0.007-0.031,0.011l-0.055,0.023l-0.064,0.028l-0.037,0.017
									c-0.004-0.002,0.001-0.013,0.002-0.02c0.006-0.052,0.011-0.089-0.038-0.22c-0.045-0.106-0.105-0.187-0.135-0.292
									c-0.01,0.107,0.023,0.221,0.033,0.318c0.002,0.025,0.003,0.047,0.002,0.072c-0.001,0.031-0.009,0.067-0.023,0.109
									c-0.03,0.084-0.075,0.183-0.121,0.279c0.006,0.01,0.008,0.023,0.021,0.027l0.074-0.013l0.163-0.03
									c0.056-0.009,0.116-0.022,0.173-0.028c0.026-0.003,0.064-0.009,0.082-0.01l0.055-0.004c0.146-0.007,0.288-0.004,0.424,0.019
									c0.128,0.02,0.25,0.055,0.363,0.107c0.129,0.069,0.249,0.153,0.37,0.249l0.427,0.353l0.206,0.188
									c0.387,0.353,0.837,0.676,1.341,0.837C99.346,43.043,99.004,42.679,98.674,42.286z"/>
							</g>
						</g>
					</g>
					<g>
						<g>
							<path fill="#FFCF99" d="M83.879,24.98c-4.883,2.514-2.122,9.393,2.491,9.354l1.581-5.767
								C89.537,25.747,85.909,24.008,83.879,24.98z"/>
							<g>
								<path fill="#090808" d="M88.158,26.102l-0.034-0.064c-0.056-0.096-0.118-0.187-0.185-0.275
									c-0.136-0.174-0.293-0.332-0.464-0.471c-0.343-0.277-0.738-0.484-1.155-0.623c-0.83-0.27-1.781-0.31-2.628,0.102
									c-0.779,0.394-1.487,0.976-1.969,1.732c-0.485,0.752-0.72,1.656-0.701,2.538c0.016,0.885,0.265,1.749,0.679,2.511
									s0.998,1.43,1.703,1.923c0.176,0.123,0.359,0.235,0.549,0.334l0.093,0.047l0.029,0.013l0.059,0.027
									c0.079,0.035,0.158,0.069,0.238,0.1c0.643,0.251,1.327,0.346,1.998,0.337c-0.676,0.004-1.339-0.195-1.918-0.511
									c-0.073-0.039-0.144-0.081-0.215-0.124l-0.161-0.102c-0.172-0.11-0.336-0.23-0.492-0.359
									c-0.625-0.518-1.123-1.175-1.468-1.898c-0.343-0.723-0.534-1.516-0.527-2.302c0.004-0.786,0.216-1.562,0.634-2.217
									c0.414-0.658,1.027-1.187,1.722-1.567c0.653-0.352,1.496-0.377,2.254-0.179c0.381,0.102,0.749,0.262,1.074,0.486
									c0.162,0.112,0.313,0.241,0.446,0.386c0.066,0.073,0.128,0.149,0.185,0.229l0.037,0.054
									c0.091,0.131,0.166,0.273,0.222,0.424c0.238,0.605,0.12,1.331-0.211,1.913c0.163-0.293,0.306-0.603,0.385-0.936
									c0.079-0.332,0.091-0.688,0.008-1.032C88.303,26.428,88.24,26.26,88.158,26.102z"/>
							</g>
						</g>
						<g opacity="0.5">
							<path fill="#B3614A" d="M83.252,25.355c-3.996,2.759-1.281,9.016,3.118,8.979l0.45-1.643
								C83.672,32.033,81.734,28.128,83.252,25.355z"/>
						</g>
						<g>
							<path fill="#FFCF99" d="M84.53,29.114c-1.594,2.14,1.401,3.878,2.093,1.617l0.089-1.565
								C86.375,28.013,85.151,28.328,84.53,29.114z"/>
							<g>
								<path fill="#090808" d="M86.664,29.032c0.017,0.044,0.035,0.088,0.048,0.134C86.699,29.12,86.684,29.076,86.664,29.032z"/>
								<path fill="#090808" d="M84.514,29.68c0.082-0.192,0.188-0.392,0.314-0.549c0.104-0.13,0.228-0.251,0.365-0.354
									c0.243-0.18,0.547-0.312,0.857-0.264c0.271,0.034,0.498,0.253,0.613,0.519c-0.041-0.114-0.09-0.226-0.161-0.328
									c-0.1-0.141-0.241-0.261-0.413-0.327c-0.348-0.136-0.746-0.067-1.078,0.084c-0.189,0.087-0.366,0.203-0.523,0.344
									c-0.206,0.186-0.355,0.398-0.482,0.635c-0.125,0.237-0.211,0.506-0.229,0.789c-0.021,0.322,0.052,0.657,0.216,0.939
									c0.162,0.282,0.41,0.508,0.696,0.643c0.126,0.06,0.26,0.103,0.397,0.124c0.383,0.065,0.787-0.058,1.045-0.309
									c0.266-0.249,0.395-0.576,0.492-0.895c-0.1,0.319-0.301,0.619-0.578,0.78c-0.275,0.165-0.602,0.174-0.869,0.066
									c-0.098-0.036-0.188-0.087-0.271-0.146c-0.379-0.275-0.569-0.723-0.536-1.163C84.381,30.071,84.432,29.874,84.514,29.68z"/>
							</g>
						</g>
						<g opacity="0.5">
							<path fill="#B3614A" d="M84.53,29.114c-1.594,2.14,1.401,3.878,2.093,1.617l0.089-1.565
								C86.375,28.013,85.151,28.328,84.53,29.114z"/>
						</g>
					</g>
					<g>
						<linearGradient id="SVGID_37_" gradientUnits="userSpaceOnUse" x1="122.7568" y1="-9.7417" x2="120.8793" y2="-5.465">
							<stop  offset="0" style="stop-color:#FFFFFF"/>
							<stop  offset="1" style="stop-color:#000000"/>
						</linearGradient>
						<path fill="url(#SVGID_37_)" d="M114.939,16.216c-4.034,1.261-7.604-2.377-10.762-5.272c1.416,3.128,6.076,5.307,8.416,7.544
							c1.158,1.093,2.313,2.318,3.144,3.802c0.476,0.81,0.636,1.678,1.308,2.293c1.986-2.775,2.105-8.725,0.828-12.299
							C117.695,14.031,116.709,15.625,114.939,16.216z"/>
					</g>
					<g>
						<linearGradient id="SVGID_38_" gradientUnits="userSpaceOnUse" x1="97.3584" y1="-7.021" x2="99.3189" y2="3.7099">
							<stop  offset="0" style="stop-color:#FFFFFF"/>
							<stop  offset="1" style="stop-color:#000000"/>
						</linearGradient>
						<path fill="url(#SVGID_38_)" d="M102.053,7.889L102.053,7.889c0.229,0.732,0.393,1.485,0.412,2.291
							c-0.008,1.33-0.652,2.917-1.608,3.305c-2.852,0.994-5.446-1.656-7.308-3.943c1.594,3.571,3.012,5.781,7.031,6.233
							c2.068,0.166,5.799,0.798,7.721-0.315C105.646,13.246,104.026,10.715,102.053,7.889z"/>
					</g>
					<g>
						<g>
							<linearGradient id="SVGID_39_" gradientUnits="userSpaceOnUse" x1="119.1699" y1="6.4141" x2="115.9463" y2="12.9764">
								<stop  offset="0" style="stop-color:#FFFFFF"/>
								<stop  offset="1" style="stop-color:#000000"/>
							</linearGradient>
							<path fill="url(#SVGID_39_)" d="M108.006,29.758c-1.658-1.336-3.737-1.866-5.189-2.075c-0.988-0.142-1.674-0.137-1.748-0.136
								l-0.575,0.009l-0.276,0.401c-1.453,2.106-1.713,3.957-0.771,5.5c1.371,2.248,4.907,3.188,7.634,3.581
								c1.362,0.196,3.395,4.284,3.438,4.285l-0.011-0.422l0.019-4.372C110.83,33.629,109.982,31.352,108.006,29.758z"/>
							<g>
								<path fill="#FFFFFF" d="M102.139,28.46c-4.361,7.897,6.176,7.874,6.176,7.874C109.305,27.99,102.139,28.46,102.139,28.46z"
									/>
								<path fill="#221F1F" d="M102.344,28.219c-0.142,0-0.221,0.005-0.221,0.005l-0.129,0.009l-0.063,0.113
									c-1.214,2.197-1.412,4.018-0.59,5.412c1.641,2.781,6.755,2.813,6.972,2.813h0.002h0.21l0.024-0.208
									c0.317-2.679-0.158-4.754-1.415-6.169C105.508,28.362,103.057,28.219,102.344,28.219z M108.104,36.093
									c-0.97-0.037-5.026-0.324-6.354-2.575c-0.718-1.215-0.538-2.838,0.532-4.825c0.57-0.008,2.953,0.073,4.5,1.814
									C107.912,31.779,108.356,33.658,108.104,36.093z"/>
							</g>
						</g>
						<g>
							<path fill="#26A7DF" d="M105.189,29.063c-0.613,0.584-1.165,1.414-1.535,2.396c-0.567,1.506-0.562,2.976-0.08,3.891
								c0.755,0.357,1.583,0.585,2.333,0.73c0.906-0.414,1.811-1.413,2.39-2.729C107.904,30.905,106.537,29.678,105.189,29.063z"/>
							<path fill="#221F1F" d="M105.291,28.842l-0.149-0.068l-0.119,0.113c-0.662,0.629-1.229,1.512-1.596,2.486
								c-0.571,1.516-0.598,3.083-0.068,4.09l0.038,0.072l0.073,0.035c0.681,0.322,1.485,0.574,2.392,0.749l0.076,0.015l0.07-0.032
								c0.984-0.449,1.924-1.516,2.512-2.853l0.029-0.065l-0.012-0.071C108.199,31.201,107.076,29.656,105.291,28.842z
								 M105.875,35.825c-0.801-0.159-1.514-0.381-2.122-0.66c-0.429-0.891-0.381-2.267,0.13-3.62
								c0.319-0.848,0.798-1.618,1.356-2.189c1.544,0.758,2.487,2.09,2.806,3.962C107.518,34.485,106.713,35.414,105.875,35.825z"/>
						</g>
						<g>
							<g>
								<path fill="#221F1F" d="M106.986,31.22c-0.654-0.203-1.443,0.502-1.764,1.575c-0.321,1.072-0.051,2.104,0.603,2.307
									s1.442-0.501,1.763-1.574C107.909,32.456,107.639,31.422,106.986,31.22z"/>
								<path fill="#221F1F" d="M107.046,31.025c-0.094-0.029-0.192-0.043-0.291-0.043c-0.708,0-1.419,0.721-1.729,1.755
									c-0.357,1.196-0.033,2.321,0.738,2.56c0.094,0.029,0.192,0.044,0.292,0.044c0.708,0,1.418-0.721,1.728-1.754
									C108.142,32.39,107.818,31.265,107.046,31.025z M107.393,33.47c-0.277,0.929-0.974,1.603-1.507,1.438
									c-0.537-0.167-0.751-1.107-0.468-2.055c0.249-0.834,0.824-1.464,1.337-1.464c0.059,0,0.116,0.009,0.171,0.026
									C107.462,31.581,107.677,32.522,107.393,33.47z"/>
							</g>
							<path fill="#F5F5F5" d="M105.727,30.78c-0.512-0.151-1.119,0.35-1.359,1.12c-0.238,0.77-0.019,1.517,0.492,1.668
								c0.511,0.152,1.119-0.35,1.358-1.119S106.236,30.933,105.727,30.78z"/>
						</g>
					</g>
				</g>
				<linearGradient id="SVGID_40_" gradientUnits="userSpaceOnUse" x1="96.9482" y1="27.4131" x2="92.3097" y2="43.4695">
					<stop  offset="0" style="stop-color:#FFFFFF"/>
					<stop  offset="1" style="stop-color:#000000"/>
				</linearGradient>
				<path fill="url(#SVGID_40_)" d="M80.47,14.843c4.144,0.162,27.62,3.977,34.528,18.199c0.506-0.928,0.888-1.568,0.888-1.568
					C108.346,15.811,80.457,14.691,80.47,14.843z"/>
				<linearGradient id="SVGID_41_" gradientUnits="userSpaceOnUse" x1="80.4512" y1="14.8213" x2="80.2556" y2="15.4982">
					<stop  offset="0" style="stop-color:#FFFFFF"/>
					<stop  offset="1" style="stop-color:#000000"/>
				</linearGradient>
				<path fill="url(#SVGID_41_)" d="M80.47,14.843C80.473,14.882,80.612,13.906,80.47,14.843L80.47,14.843z"/>
			</g>
			<g>
				<g>
					<path fill="#FFC93D" d="M85.041,5.713c-12.574,4.72-15.512,19.57-14.489,30.626l15.587-16.986
						c9.475,0.842,14.973,4.479,21.65,10.863c4.711,4.454,12.361,9.243,14.891,0.188C129.055,8.851,99.735,0.146,85.041,5.713z"/>
					<g>
						<path fill="#090808" d="M121.797,16.036c-0.894-1.523-2.016-2.901-3.281-4.116c-2.538-2.433-5.601-4.226-8.813-5.538
							c-3.222-1.308-6.619-2.145-10.063-2.554c-3.442-0.4-6.948-0.385-10.384,0.22c-1.715,0.305-3.414,0.769-5.033,1.443
							c-1.62,0.67-3.159,1.548-4.553,2.617c-2.802,2.134-4.965,5.014-6.467,8.152c-1.512,3.146-2.415,6.54-2.89,9.967
							c-0.237,1.715-0.364,3.444-0.394,5.173l-0.007,0.648l0.001,0.081v0.014l0.004,0.057l0.006,0.113l0.029,0.452
							c0.095,1.204,0.271,2.403,0.599,3.574c0.108-1.209,0.161-2.398,0.229-3.583l0.024-0.444l0.006-0.111l0.003-0.056l0.012-0.728
							c0.035-1.694,0.168-3.386,0.406-5.062c0.479-3.347,1.373-6.646,2.841-9.675c1.461-3.023,3.538-5.761,6.202-7.779
							c1.326-1.012,2.789-1.841,4.334-2.476c1.545-0.639,3.169-1.079,4.824-1.371c3.315-0.577,6.73-0.589,10.084-0.194
							c3.354,0.403,6.664,1.223,9.789,2.494c3.115,1.273,6.065,3.009,8.479,5.325c1.204,1.155,2.265,2.458,3.104,3.889
							c0.841,1.43,1.457,2.987,1.804,4.606c0.35,1.619,0.433,3.294,0.286,4.952c-0.143,1.658-0.518,3.307-1.035,4.89
							c-0.267,0.775-0.608,1.52-1.064,2.164c-0.454,0.643-1.031,1.176-1.717,1.488c-0.683,0.316-1.462,0.409-2.244,0.329
							c-0.783-0.078-1.568-0.313-2.324-0.628c-1.515-0.638-2.925-1.574-4.248-2.606c-0.662-0.519-1.303-1.068-1.923-1.64
							c-0.613-0.574-1.245-1.178-1.881-1.753c-2.546-2.313-5.28-4.494-8.366-6.122c-1.539-0.815-3.156-1.486-4.819-2
							c-0.831-0.258-1.674-0.476-2.522-0.662l-0.073-0.015l-0.014-0.002l-0.028-0.004l-0.056-0.009c-0.3-0.049-0.6-0.093-0.9-0.128
							c-1.204-0.141-2.416-0.185-3.626-0.074c1.17,0.323,2.33,0.589,3.476,0.884l0.856,0.223l0.054,0.014l0.027,0.007l0.084,0.02
							c0.823,0.184,1.639,0.398,2.441,0.65c1.606,0.503,3.163,1.157,4.647,1.949c2.977,1.583,5.64,3.714,8.148,6.006
							c0.632,0.575,1.236,1.157,1.871,1.754c0.637,0.59,1.295,1.158,1.979,1.697c1.37,1.072,2.835,2.056,4.479,2.754
							c0.821,0.344,1.694,0.613,2.616,0.708c0.916,0.096,1.898-0.008,2.775-0.414c0.881-0.399,1.6-1.073,2.131-1.824
							c0.535-0.755,0.911-1.585,1.202-2.426c0.549-1.669,0.94-3.38,1.095-5.136c0.156-1.751,0.07-3.535-0.302-5.265
							C123.351,19.225,122.692,17.558,121.797,16.036z"/>
					</g>
				</g>
				<g>
					<path fill="#FFC93D" d="M68.395,26.819c-5.069,7.08-10.563,10.798-17.257,15.442c3.081,2.575,7.904,2.548,11.634,0.467
						c-1.68,2.789-4.181,5.229-6.158,7.733c7.618,0.2,19.142-1.629,24.218-8.387c4.057-5.6,0.821-17.44,7.809-19.415
						c-1.356,1.652-2.762,3.761-3.242,5.625c2.586-1.292,4.922-3.325,7.633-4.246c7.903-2.541,11.304,1.283,17.477,4.371
						L90.774,9.25C78.913,9.005,75.26,17.001,68.395,26.819z"/>
					<g>
						<path fill="#090808" d="M106.729,25.776l-0.049-0.031l-0.023-0.016l-0.013-0.008l-0.073-0.043
							c-0.876-0.505-1.764-1.007-2.691-1.454c-0.926-0.446-1.896-0.834-2.91-1.1c-1.012-0.269-2.064-0.406-3.112-0.408
							c-1.049-0.004-2.091,0.125-3.104,0.342c-0.507,0.108-1.008,0.239-1.502,0.388l-0.373,0.116
							c-0.125,0.044-0.254,0.087-0.376,0.135c-0.247,0.092-0.487,0.194-0.727,0.3c-1.909,0.863-3.554,2.08-5.259,3.089l-0.128,0.075
							L86.37,27.17l-0.034,0.018c0-0.017,0.016-0.05,0.023-0.067c0.185-0.412,0.42-0.862,0.664-1.277
							c0.123-0.211,0.252-0.419,0.385-0.626l0.201-0.308c0.131-0.195,0.277-0.405,0.421-0.607c0.292-0.408,0.611-0.822,0.98-1.275
							l0.56-0.688l0.283-0.348l0.142-0.173c0.038-0.05,0.132-0.146,0.059-0.106l-0.356,0.097l-0.125,0.033l-0.268,0.079
							l-0.962,0.287c-0.305,0.093-0.63,0.218-0.98,0.392c-0.349,0.171-0.739,0.419-1.116,0.732c-0.09,0.074-0.188,0.166-0.26,0.229
							l-0.147,0.145c-0.098,0.098-0.189,0.2-0.28,0.303c-0.179,0.208-0.344,0.427-0.495,0.652c-0.604,0.907-0.987,1.908-1.272,2.908
							c-0.283,1.003-0.471,2.015-0.626,3.022c-0.31,2.014-0.491,4.019-0.852,5.968c-0.181,0.973-0.405,1.933-0.726,2.846
							c-0.322,0.911-0.739,1.781-1.316,2.516c-1.187,1.526-2.725,2.782-4.409,3.784c-1.688,1.006-3.522,1.774-5.41,2.374
							c-1.89,0.599-3.838,1.03-5.805,1.331c-0.981,0.149-1.967,0.268-2.957,0.353c-0.777,0.067-1.556,0.116-2.335,0.144
							c-0.39,0.014-0.779,0.024-1.169,0.027l-0.451,0.003c-0.001,0,0-0.001,0-0.002l0.544-0.644l1.547-1.789
							c0.575-0.668,1.146-1.346,1.695-2.048l0.407-0.531l0.2-0.27c0.123-0.167,0.25-0.352,0.374-0.527
							c0.503-0.722,0.878-1.373,1.302-2.055l0.314-0.511l0.125-0.205c0.009-0.019,0.039-0.056,0.031-0.058l-0.089,0.049
							l-0.179,0.098l-1.47,0.803c-0.483,0.27-0.885,0.452-1.298,0.622c-0.103,0.041-0.204,0.083-0.308,0.121l-0.167,0.061
							l-0.298,0.101c-0.797,0.26-1.624,0.432-2.457,0.511c-1.664,0.157-3.372-0.068-4.868-0.762
							c-0.373-0.174-0.733-0.374-1.071-0.604c-0.034-0.024-0.03-0.013-0.015-0.028l1.981-1.381c2.878-2.018,5.739-4.109,8.352-6.513
							c2.617-2.395,4.959-5.101,6.951-8.031c2.003-2.895,3.869-5.873,5.99-8.626c1.063-1.372,2.2-2.681,3.479-3.825
							c1.275-1.144,2.701-2.11,4.26-2.797c0.777-0.344,1.585-0.622,2.412-0.833c0.206-0.053,0.414-0.101,0.623-0.146l0.455-0.092
							l0.048-0.011l0.19-0.045l0.382-0.085c1.172-0.257,2.372-0.434,3.6-0.634c-1.22-0.249-2.474-0.306-3.724-0.205
							c-0.137,0.012-0.272,0.025-0.408,0.04L86.438,9.11l-0.051,0.006l-0.149,0.028L85.906,9.21
							c-0.22,0.048-0.439,0.098-0.658,0.152c-0.875,0.22-1.734,0.511-2.563,0.874c-1.66,0.724-3.179,1.748-4.52,2.941
							c-1.343,1.194-2.521,2.544-3.611,3.941c-2.174,2.806-4.049,5.782-6.047,8.654c-1.964,2.87-4.254,5.501-6.821,7.842
							c-2.563,2.348-5.387,4.406-8.258,6.412l-2.342,1.625c-0.178,0.121-0.346,0.244-0.51,0.369l-0.25,0.186l-0.031,0.023
							c-0.015,0.008-0.021,0.016-0.003,0.024l0.061,0.05l0.124,0.101l0.49,0.396c0.155,0.129,0.355,0.268,0.505,0.373
							c0.387,0.264,0.796,0.492,1.218,0.689c1.697,0.788,3.591,1.031,5.415,0.862c0.914-0.086,1.817-0.273,2.688-0.556l0.326-0.11
							l0.143-0.052l0.005-0.002c0.002,0,0.009-0.006,0.005-0.001l-0.006,0.009l-0.197,0.266l-0.394,0.514
							c-0.532,0.681-1.093,1.345-1.664,2.007l-1.55,1.792l-0.386,0.455l-0.216,0.258l-0.373,0.456
							c-0.346,0.539-1.533,1.479-0.192,1.233c0.387,0.009,0.775,0.017,1.17,0.019l0.434,0.002l0.299-0.002
							c0.399-0.004,0.798-0.014,1.197-0.028c0.797-0.028,1.594-0.078,2.389-0.146c1.012-0.087,2.021-0.208,3.026-0.361
							c2.016-0.309,4.016-0.751,5.968-1.37c1.951-0.621,3.859-1.418,5.636-2.478c1.773-1.057,3.415-2.391,4.706-4.053
							c0.668-0.854,1.128-1.83,1.475-2.816c0.347-0.99,0.58-2,0.766-3.006c0.369-2.016,0.549-4.031,0.85-6.001
							c0.15-0.984,0.33-1.958,0.593-2.896c0.265-0.935,0.615-1.838,1.132-2.613c0.129-0.193,0.268-0.377,0.416-0.551
							c0.076-0.086,0.152-0.172,0.232-0.252l0.144-0.14c0.013-0.012,0.028-0.022,0.046-0.031c0.064-0.037,0.005,0.02-0.01,0.048
							l-0.224,0.344c-0.14,0.218-0.274,0.438-0.405,0.663c-0.264,0.455-0.498,0.898-0.724,1.406
							c-0.198,0.452-0.364,0.907-0.478,1.321l-0.169,0.617l-0.087,0.317l-0.044,0.163l-0.021,0.079l-0.009,0.037
							c0.004,0.004,0.023-0.011,0.035-0.015l1.245-0.637c0.211-0.115,0.419-0.221,0.632-0.346l0.317-0.181l0.206-0.122
							c1.756-1.05,3.376-2.245,5.149-3.049c0.221-0.099,0.443-0.194,0.669-0.278c0.113-0.045,0.224-0.081,0.335-0.122l0.348-0.109
							c0.471-0.143,0.945-0.268,1.424-0.372c0.955-0.207,1.925-0.33,2.893-0.329c0.967,0,1.93,0.122,2.866,0.368
							c0.938,0.242,1.849,0.602,2.739,1.027c0.89,0.424,1.76,0.913,2.631,1.411l0.074,0.042l0.012,0.007l0.025,0.013l0.052,0.026
							l0.82,0.415c1.103,0.542,2.236,1.05,3.432,1.397c-0.995-0.747-1.992-1.445-3.009-2.129L106.729,25.776z"/>
					</g>
				</g>
				<g>
					<linearGradient id="SVGID_42_" gradientUnits="userSpaceOnUse" x1="97.749" y1="9.3789" x2="96.859" y2="23.8929">
						<stop  offset="0" style="stop-color:#FFFFFF"/>
						<stop  offset="1" style="stop-color:#000000"/>
					</linearGradient>
					<path fill="url(#SVGID_42_)" d="M102.483,20.619c-2.062-0.473-4.204-0.666-6.289-0.599c0.044,0.027,0.089,0.054,0.132,0.083
						c-3.958,0.687-7.917,2.937-9.18,6.622c-0.081,0.225-0.146,0.458-0.198,0.696c2-1.209,3.923-2.648,6.082-3.382
						c5.995-1.926,9.398-0.193,13.386,2.104c-0.386-1.174-0.939-2.281-1.627-3.286L102.483,20.619z"/>
				</g>
				<g>
					<linearGradient id="SVGID_43_" gradientUnits="userSpaceOnUse" x1="80.2822" y1="47.0771" x2="73.304" y2="40.9448">
						<stop  offset="0" style="stop-color:#FFFFFF"/>
						<stop  offset="1" style="stop-color:#000000"/>
					</linearGradient>
					<path fill="url(#SVGID_43_)" d="M74.524,41.224c2.539-2.208,2.483-5.664,3.675-8.588c-4.926,7.334-11.892,16.096-20.984,17.085
						c-0.205,0.247-0.406,0.493-0.602,0.741c7.618,0.2,19.142-1.629,24.218-8.387c2.831-3.907,2.112-10.853,3.792-15.366
						C80.933,31.359,79.354,37.551,74.524,41.224z"/>
				</g>
				<g>
					<linearGradient id="SVGID_44_" gradientUnits="userSpaceOnUse" x1="50.7891" y1="33.0576" x2="66.3309" y2="37.2309">
						<stop  offset="0" style="stop-color:#FFFFFF"/>
						<stop  offset="1" style="stop-color:#000000"/>
					</linearGradient>
					<path fill="url(#SVGID_44_)" d="M70.973,28.589c-2.061,1.322-4.332,2.252-6.627,3.139c-3.955,4.164-8.253,7.095-13.208,10.533
						c1.232,1.03,2.744,1.643,4.353,1.875c2.292-0.63,4.573-1.577,6.687-2.4c5.106-1.905,7.23-6.896,10.573-10.738
						c-2.252,2.294-5.307,3.096-8.161,4.271C66.941,33.162,68.419,30.323,70.973,28.589z"/>
				</g>
				<g>
					<path fill="#FFC93D" d="M94.181,0.699c-8.9,0.456-18.701,3.069-25.079,9.931c2.52-0.546,5.244-0.85,7.931-0.695
						c-8.647,3.877-11.991,13.721-20.304,17.894c6.434,1.06,16.194,0.009,20.201-5.93l40.856-7.091
						C116.505,4.329,102.895,0.325,94.181,0.699z"/>
					<g>
						<path fill="#090808" d="M116.721,10.009l-0.028-0.056l-0.014-0.028l-0.008-0.014l-0.033-0.058
							c-0.372-0.642-0.8-1.25-1.271-1.82c-0.94-1.143-2.049-2.131-3.242-2.979c-2.396-1.696-5.109-2.855-7.895-3.653
							c-2.792-0.79-5.678-1.228-8.586-1.273c-0.724-0.011-1.463,0.011-2.18,0.06c-0.719,0.044-1.438,0.104-2.154,0.176
							c-1.435,0.146-2.864,0.349-4.282,0.617c-2.836,0.536-5.635,1.326-8.311,2.447c-2.673,1.12-5.223,2.58-7.481,4.428
							l-0.021,0.018c-0.25,0.205-0.497,0.414-0.739,0.629c-0.122,0.107-0.242,0.215-0.361,0.325l-0.273,0.255l-0.335,0.327
							c-0.23,0.219-0.434,0.434-0.641,0.649L68.255,10.7l-0.62,0.655c-0.084,0.102-0.306,0.266-0.033,0.173l0.488-0.104
							c0.657-0.139,1.328-0.288,1.96-0.409c0.317-0.062,0.63-0.116,0.94-0.167l0.461-0.071c0.616-0.091,1.234-0.164,1.854-0.217
							c0.31-0.026,0.619-0.048,0.93-0.064l0.548-0.024l0.013,0l-0.01,0.006l-0.168,0.104c-0.139,0.085-0.276,0.173-0.412,0.262
							c-0.274,0.177-0.542,0.363-0.807,0.552c-2.116,1.523-3.916,3.397-5.597,5.313c-1.684,1.918-3.264,3.896-4.991,5.71
							c-0.862,0.907-1.763,1.771-2.721,2.559c-0.479,0.393-0.971,0.769-1.48,1.118l-0.385,0.257l-0.194,0.125l-0.112,0.071
							l-0.189,0.113l-0.379,0.226c-0.121,0.075-0.281,0.153-0.42,0.23c-0.284,0.153-0.576,0.307-0.878,0.462l-0.874,0.454
							L55.07,28.09c-0.016,0.006-0.01,0.007,0.001,0.008l0.023,0.004l0.046,0.008l0.208,0.034l0.438,0.069
							c0.574,0.089,1.134,0.182,1.727,0.261c0.295,0.035,0.614,0.075,0.891,0.101l0.482,0.042c0.322,0.024,0.644,0.046,0.966,0.06
							c1.289,0.059,2.58,0.04,3.866-0.063c2.567-0.207,5.133-0.725,7.539-1.73c0.601-0.253,1.189-0.537,1.759-0.859
							c0.286-0.159,0.564-0.332,0.841-0.509l0.103-0.069l0.012-0.008l0.021-0.017c0.06-0.044,0.12-0.087,0.178-0.134
							c0.117-0.092,0.233-0.182,0.346-0.279c0.511-0.429,0.981-0.905,1.393-1.425c0.41-0.52,0.758-1.088,1.021-1.686
							c-0.916,0.933-1.891,1.726-2.942,2.394c-0.116,0.076-0.235,0.146-0.353,0.219l-0.178,0.106l-0.022,0.013l-0.011,0.007
							L73.326,24.7c-0.258,0.163-0.52,0.324-0.788,0.471c-0.536,0.298-1.093,0.563-1.662,0.799
							c-2.284,0.941-4.756,1.431-7.237,1.618c-1.242,0.094-2.492,0.106-3.736,0.045c-0.311-0.016-0.621-0.038-0.932-0.062
							l-0.465-0.043l-0.048-0.006c-0.036-0.007-0.116-0.009-0.041-0.034c0.024-0.013,0.023-0.011,0.078-0.044l0.311-0.198
							l0.407-0.27c0.538-0.366,1.056-0.758,1.559-1.167c1.004-0.82,1.938-1.713,2.826-2.64c1.776-1.855,3.371-3.841,5.037-5.729
							c1.663-1.888,3.41-3.691,5.42-5.133c0.251-0.179,0.505-0.354,0.764-0.521c0.13-0.084,0.259-0.167,0.391-0.247l0.099-0.061
							l0.142-0.085l0.417-0.236c0.267-0.159,0.584-0.312,0.892-0.465l0.23-0.115l0.255-0.119l0.516-0.239l1.035-0.479l0.492-0.228
							l0.029-0.014c0.016-0.006,0.02-0.009,0.006-0.008l-0.046-0.003l-0.092-0.005L79,9.473l-1.707-0.089
							c-0.556-0.031-1.145-0.055-1.77-0.052c-0.156,0-0.312,0.001-0.47,0.006l-0.394,0.01l-0.484,0.021
							c-0.323,0.017-0.646,0.039-0.968,0.066c-0.643,0.055-1.283,0.13-1.921,0.224l-0.481,0.074c-0.001,0,0.002-0.001,0.002-0.002
							l0.074-0.068c0.113-0.105,0.229-0.208,0.345-0.311c0.231-0.206,0.469-0.405,0.707-0.602l0.021-0.017
							c2.161-1.769,4.614-3.177,7.201-4.264c2.589-1.088,5.312-1.861,8.081-2.389c1.385-0.264,2.783-0.465,4.188-0.611
							c0.702-0.073,1.406-0.133,2.111-0.178c0.705-0.049,1.394-0.071,2.097-0.063c2.8,0.035,5.605,0.452,8.307,1.206
							c2.696,0.761,5.311,1.871,7.587,3.468c1.135,0.799,2.178,1.724,3.057,2.781c0.44,0.528,0.839,1.089,1.186,1.68l0.086,0.138
							c0.166,0.261,0.324,0.527,0.475,0.799c0.605,1.086,1.069,2.26,1.458,3.507c0.078-1.307-0.166-2.64-0.653-3.883
							C117.01,10.613,116.873,10.308,116.721,10.009z"/>
					</g>
				</g>
				<g>
					<linearGradient id="SVGID_45_" gradientUnits="userSpaceOnUse" x1="91.2695" y1="2.9175" x2="91.3625" y2="3.0496">
						<stop  offset="0" style="stop-color:#FFFFFF"/>
						<stop  offset="1" style="stop-color:#000000"/>
					</linearGradient>
					<path fill="url(#SVGID_45_)" d="M91.594,3.029c-0.154,0.007-0.311,0.018-0.467,0.036C91.282,3.052,91.438,3.041,91.594,3.029z"
						/>
				</g>
				<g>
					<linearGradient id="SVGID_46_" gradientUnits="userSpaceOnUse" x1="62.8159" y1="-0.123" x2="84.3996" y2="14.3103">
						<stop  offset="0" style="stop-color:#FFFFFF"/>
						<stop  offset="1" style="stop-color:#000000"/>
					</linearGradient>
					<path fill="url(#SVGID_46_)" d="M115.291,8.755c-4.598-5.99-14.334-8.347-21.11-8.056c-8.9,0.456-18.701,3.069-25.079,9.931
						c2.52-0.546,5.244-0.85,7.931-0.695c-7.262,3.255-10.784,10.718-16.647,15.497c4.077-1.595,8.035-3.431,11.764-6.025
						c2.64-2.021,4.505-4.587,7.244-6.422c-1.893,0.057-3.557,1.433-5.492,1.633c0.659-0.114,1.318-0.229,1.734-0.573
						c6.27-5.777,13.642-9.503,21.974-9.657c-2.002-0.602-3.93-1.451-6.015-1.358c-0.155,0.012-0.312,0.022-0.467,0.036
						c0.155-0.013,0.312-0.024,0.467-0.036C99.562,2.452,108.392,4.324,115.291,8.755z"/>
				</g>
			</g>
			<g>
				<path fill="#FFC93D" d="M93.406,11.646l17.577,1.039C106.158,7.491,99.495,9.361,93.406,11.646z"/>
				<g>
					<path fill="#090808" d="M108.87,10.505c-0.106-0.074-0.214-0.145-0.323-0.213l-0.082-0.051l-0.041-0.025l-0.024-0.014
						l-0.053-0.029c-0.143-0.078-0.286-0.153-0.433-0.223c-0.582-0.284-1.195-0.507-1.822-0.671
						c-1.257-0.328-2.562-0.413-3.838-0.336c-1.279,0.078-2.536,0.311-3.76,0.628c-0.306,0.08-0.609,0.165-0.912,0.254L97.13,9.962
						l-0.226,0.071l-0.092,0.032c-0.236,0.084-0.471,0.172-0.704,0.265c-0.931,0.372-1.837,0.797-2.702,1.315
						c0.992-0.179,1.955-0.425,2.913-0.664l0.716-0.181l0.762-0.205c0.299-0.078,0.597-0.152,0.896-0.222
						c1.196-0.278,2.403-0.486,3.613-0.559c1.208-0.072,2.421-0.006,3.586,0.268c0.582,0.137,1.151,0.324,1.699,0.565
						c0.137,0.06,0.272,0.124,0.406,0.19l0.195,0.094l0.321,0.16c0.855,0.438,1.662,0.989,2.47,1.591
						C110.441,11.833,109.715,11.093,108.87,10.505z"/>
				</g>
			</g>
			<g>
				<linearGradient id="SVGID_47_" gradientUnits="userSpaceOnUse" x1="103.5791" y1="6.4839" x2="100.6846" y2="18.3618">
					<stop  offset="0" style="stop-color:#FFFFFF"/>
					<stop  offset="1" style="stop-color:#000000"/>
				</linearGradient>
				<path fill="url(#SVGID_47_)" d="M93.406,11.646l17.577,1.039C106.158,7.491,99.495,9.361,93.406,11.646z"/>
			</g>
			<g>
				<path fill="#FFC93D" d="M116.923,26.141c-0.299,2.396-6.876,2.086-8.972,3.084c2.994,1.797,8.883,2.794,12.276,1.297
					c4.691-1.997,2.695-7.586,0.1-10.58L116.923,26.141z"/>
				<g>
					<path fill="#090808" d="M123.012,23.63l-0.048-0.129l-0.016-0.038l-0.024-0.055l-0.048-0.11
						c-0.066-0.145-0.135-0.289-0.208-0.43c-0.586-1.127-1.37-2.142-2.341-2.925c0.626,1.072,1.163,2.151,1.563,3.265
						c0.051,0.139,0.098,0.278,0.143,0.418l0.033,0.104l0.017,0.053l0.053,0.155c0.108,0.318,0.198,0.64,0.27,0.964
						c0.14,0.648,0.199,1.308,0.13,1.941c-0.068,0.632-0.271,1.232-0.619,1.736c-0.688,1.02-1.947,1.597-3.229,1.88
						c-1.301,0.282-2.68,0.303-4.037,0.183c-1.172-0.106-2.339-0.323-3.471-0.646c-0.564-0.163-1.121-0.352-1.659-0.576
						l-0.126-0.052c-0.014-0.005-0.014-0.005-0.016-0.005l-0.015-0.005c-0.008-0.003-0.036-0.011-0.02-0.016
						c0.005-0.003,0.012-0.007,0.02-0.01l0.013-0.005c0.016-0.004-0.03,0.005,0.104-0.023c0.379-0.079,0.769-0.145,1.16-0.208
						c0.783-0.127,1.58-0.241,2.38-0.386l0.086-0.017l0.032-0.007l0.065-0.015l0.13-0.03l0.259-0.063
						c0.173-0.043,0.345-0.09,0.518-0.14c0.603-0.182,1.208-0.398,1.765-0.742c0.276-0.173,0.541-0.382,0.744-0.648
						c0.205-0.263,0.325-0.595,0.304-0.907c-0.093,0.3-0.286,0.531-0.515,0.698c-0.229,0.169-0.492,0.287-0.765,0.383
						c-0.548,0.189-1.131,0.299-1.72,0.391l-0.506,0.074l-0.561,0.076c-0.779,0.126-1.57,0.225-2.369,0.341
						c-0.4,0.059-0.803,0.121-1.209,0.199c-0.063,0.011-0.303,0.063-0.481,0.104c-0.188,0.045-0.371,0.096-0.546,0.15
						c-0.356,0.11-0.615,0.248-0.91,0.373L107,29.086l-0.172,0.079c0.041,0.034,0.114,0.07,0.17,0.105l0.691,0.408
						c0.229,0.136,0.475,0.272,0.738,0.402c0.133,0.064,0.267,0.131,0.393,0.186l0.291,0.129c0.58,0.247,1.172,0.453,1.771,0.629
						c1.199,0.35,2.428,0.582,3.671,0.695c1.442,0.126,2.913,0.105,4.366-0.217c0.727-0.164,1.439-0.418,2.111-0.787
						c0.672-0.37,1.293-0.896,1.734-1.562c0.444-0.663,0.688-1.443,0.756-2.209c0.07-0.77-0.019-1.528-0.189-2.251
						C123.246,24.33,123.139,23.976,123.012,23.63z"/>
				</g>
			</g>
			<g>
				<linearGradient id="SVGID_48_" gradientUnits="userSpaceOnUse" x1="107.9512" y1="28.7417" x2="123.0537" y2="28.7417">
					<stop  offset="0" style="stop-color:#FFFFFF"/>
					<stop  offset="1" style="stop-color:#000000"/>
				</linearGradient>
				<path fill="url(#SVGID_48_)" d="M117.981,29.774c0.898-0.599,1.647-1.347,2.246-2.246c-2.981,0.949-6.454,1.897-9.64,1.069
					c-1.078,0.165-2.039,0.343-2.637,0.628c2.994,1.797,8.883,2.794,12.276,1.297c2.102-0.895,2.86-2.51,2.825-4.291
					C122.371,28.075,119.828,28.983,117.981,29.774z"/>
			</g>
			<g>
				<path fill="#FFC93D" d="M106.605,19.418c-0.747,2.85-4.67,4.779-7.233,5.613c3.117,2.715,9.677,4.98,13.808,3.774
					c5.697-1.58,4.36-8.713,1.901-12.808L106.605,19.418z"/>
				<g>
					<path fill="#090808" d="M117.518,20.826l-0.031-0.147l-0.012-0.046l-0.018-0.069l-0.037-0.137
						c-0.052-0.182-0.107-0.363-0.166-0.542c-0.48-1.428-1.195-2.771-2.173-3.887c0.515,1.385,0.93,2.757,1.196,4.144
						c0.033,0.173,0.064,0.346,0.093,0.519l0.021,0.13l0.01,0.065l0.033,0.18c0.064,0.365,0.115,0.731,0.146,1.097
						c0.126,1.455-0.049,2.955-0.775,4.111c-0.359,0.576-0.853,1.049-1.44,1.395c-0.293,0.173-0.609,0.316-0.939,0.431
						c-0.163,0.057-0.334,0.107-0.51,0.154c-0.174,0.048-0.344,0.086-0.52,0.12c-1.407,0.264-2.912,0.166-4.375-0.102
						c-1.466-0.272-2.91-0.723-4.289-1.313c-0.689-0.295-1.362-0.627-2.008-1c-0.322-0.186-0.639-0.382-0.944-0.59l-0.112-0.076
						l-0.017-0.009l-0.029-0.019c-0.02-0.009,0.001-0.01,0.007-0.016l0.031-0.016l0.009-0.005l0.124-0.05l0.275-0.116
						c0.184-0.078,0.365-0.16,0.546-0.244c0.361-0.168,0.718-0.348,1.068-0.541c0.175-0.097,0.349-0.196,0.521-0.299l0.128-0.083
						c0.316-0.209,0.623-0.434,0.917-0.674c0.587-0.483,1.132-1.032,1.563-1.667c0.43-0.631,0.74-1.363,0.795-2.105
						c-0.314,0.671-0.768,1.222-1.275,1.701c-0.508,0.479-1.075,0.888-1.67,1.255c-0.297,0.184-0.6,0.357-0.91,0.522l-0.615,0.334
						c-0.33,0.173-0.668,0.335-1.01,0.487c-0.172,0.076-0.344,0.149-0.518,0.221l-0.261,0.104l-0.408,0.155
						c-0.35,0.131-0.719,0.25-1.094,0.372l-0.56,0.182l-0.068,0.022l-0.035,0.011l-0.018,0.006c-0.002,0.002,0.006,0.006,0.009,0.01
						l0.095,0.084l0.205,0.176c0.271,0.231,0.53,0.461,0.813,0.692c0.139,0.114,0.293,0.231,0.436,0.339l0.359,0.259
						c0.331,0.232,0.67,0.447,1.015,0.652c0.69,0.407,1.403,0.767,2.133,1.086c1.46,0.636,2.985,1.12,4.56,1.413
						c1.572,0.285,3.21,0.4,4.85,0.083c0.204-0.041,0.411-0.088,0.609-0.145c0.197-0.055,0.396-0.115,0.598-0.187
						c0.399-0.143,0.79-0.323,1.16-0.547c0.742-0.444,1.389-1.081,1.836-1.826c0.453-0.744,0.713-1.575,0.836-2.398
						c0.123-0.827,0.116-1.653,0.029-2.46C117.662,21.62,117.598,21.22,117.518,20.826z"/>
				</g>
			</g>
			<g>
				<linearGradient id="SVGID_49_" gradientUnits="userSpaceOnUse" x1="105.5361" y1="8.2627" x2="108.6301" y2="25.5291">
					<stop  offset="0" style="stop-color:#FFFFFF"/>
					<stop  offset="1" style="stop-color:#000000"/>
				</linearGradient>
				<path fill="url(#SVGID_49_)" d="M105.106,25.731c1.197-0.898,2.096-2.096,2.994-3.293c-2.45,0.129-4.567,1.701-7.021,1.943
					c-0.601,0.262-1.184,0.479-1.708,0.65c3.117,2.715,9.677,4.98,13.808,3.774c4.102-1.138,4.557-5.153,3.573-8.841
					C115.255,24.483,109.57,25.597,105.106,25.731z"/>
			</g>
		</g>
	</g>
</g>
</svg>
